<?xml version="1.0" encoding="utf-8"?>
<!-- Generator: Adobe Illustrator 24.2.1, SVG Export Plug-In . SVG Version: 6.00 Build 0)  -->
<svg version="1.1" id="Layer_1" xmlns="http://www.w3.org/2000/svg" xmlns:xlink="http://www.w3.org/1999/xlink" x="0px" y="0px"
	 viewBox="0 0 2354.8 311.9" style="enable-background:new 0 0 2354.8 311.9;" xml:space="preserve">
<style type="text/css">
	.st0{fill:#F79541;}
	.st1{opacity:0.8;}
	.st2{fill:none;stroke:#F79541;stroke-miterlimit:10;}
	.st3{fill:none;stroke:#F79541;stroke-width:4;stroke-miterlimit:10;}
	.st4{fill:#F7941D;}
	.st5{fill:#FFFFFF;}
	.st6{fill:#FFFFFF;stroke:#FFFFFF;stroke-width:0.5;stroke-miterlimit:10;}
</style>
<g>
	<g>
		<path class="st0" d="M1347.9,213.8c-10.3,6.3-22,9.6-33.8,11.9c-12.8,2.4-25.9,4-38.9,5.3c-27.1,2.6-54.4,3.2-81.6,1.8
			c-7.6-0.4-15.2-0.9-22.7-1.6c-7.7-0.7-15.3-1.9-23.1-2c-3.2-0.1-3.2,4.9,0,5c6.9,0.1,13.8,1.1,20.6,1.8c6.8,0.7,13.7,1.2,20.5,1.6
			c13.7,0.8,27.4,1.1,41.2,0.9c27.2-0.4,54.5-2.6,81.3-7.2c13.5-2.3,27.1-5.8,38.8-13.1C1353.2,216.4,1350.7,212.1,1347.9,213.8
			L1347.9,213.8z"/>
	</g>
</g>
<g>
	<g>
		<path class="st0" d="M1681.7,176.1c30,10.9,61.1,20,92.8,24c15.5,2,31.3,2.6,46.8,1.1c15.7-1.5,30.6-5.4,45.4-10.9
			c14.8-5.6,29.3-11,45.1-13.3c15.8-2.3,31.9-2.2,47.8-0.9c32.7,2.6,64.7,10.4,97.2,13.8c16.6,1.7,33.3,2,50,1.2
			c8.3-0.4,16.6-1,25-1.7c4.2-0.3,8.5-0.6,12.7-1.1c2.7-0.3,5.8-1.3,6.5-4.3c0.6-2.4-0.6-5.1-3.2-5.6c-3.1-0.7-4.5,4.1-1.3,4.8
			c-0.2,0-0.2-0.5-0.3-0.5c0,0-0.3,0.3-0.4,0.3c-0.8,0.1-1.6,0.3-2.4,0.4c-2,0.2-4,0.3-6,0.5c-4,0.3-8,0.7-12,1
			c-8,0.6-16,1.1-24,1.4c-15.9,0.6-31.8,0-47.6-1.7c-31.2-3.5-61.9-10.8-93.2-13.4c-15.1-1.2-30.4-1.4-45.4,0.4
			c-15.1,1.8-29.3,6.1-43.5,11.5c-14.1,5.4-28.2,10.2-43.2,12.3c-15,2.1-30.2,2-45.2,0.6c-30.4-2.8-60.3-11.1-89.1-20.9
			c-3.7-1.3-7.4-2.6-11-3.9C1680,170.2,1678.7,175,1681.7,176.1L1681.7,176.1z"/>
	</g>
</g>
<g>
	<g class="st1">
		<path class="st2" d="M1614.1,94.5c-0.4,0-0.7-0.3-0.7-0.7c0-0.4,0.3-0.7,0.7-0.7c0.4,0,0.7,0.3,0.7,0.7
			C1614.8,94.2,1614.5,94.5,1614.1,94.5z M1614.1,93.3c-0.3,0-0.5,0.2-0.5,0.5s0.2,0.5,0.5,0.5c0.3,0,0.5-0.2,0.5-0.5
			S1614.4,93.3,1614.1,93.3z"/>
		<path class="st2" d="M1624.2,59.4c0,0.3-0.3,0.6-0.6,0.6s-0.6-0.3-0.6-0.6s0.3-0.6,0.6-0.6S1624.2,59.1,1624.2,59.4z"/>
		<path class="st2" d="M1623.6,60.1c-0.4,0-0.7-0.3-0.7-0.7c0-0.4,0.3-0.7,0.7-0.7c0.4,0,0.7,0.3,0.7,0.7
			C1624.3,59.8,1624,60.1,1623.6,60.1z M1623.6,58.9c-0.3,0-0.5,0.2-0.5,0.5s0.2,0.5,0.5,0.5c0.3,0,0.5-0.2,0.5-0.5
			S1623.9,58.9,1623.6,58.9z"/>
		<path class="st2" d="M1632.1,58.3c0,0.3-0.3,0.6-0.6,0.6s-0.6-0.3-0.6-0.6s0.3-0.6,0.6-0.6S1632.1,58,1632.1,58.3z"/>
		<path class="st2" d="M1631.5,59c-0.4,0-0.7-0.3-0.7-0.7c0-0.4,0.3-0.7,0.7-0.7c0.4,0,0.7,0.3,0.7,0.7
			C1632.2,58.7,1631.9,59,1631.5,59z M1631.5,57.8c-0.3,0-0.5,0.2-0.5,0.5s0.2,0.5,0.5,0.5c0.3,0,0.5-0.2,0.5-0.5
			S1631.8,57.8,1631.5,57.8z"/>
		<path class="st2" d="M1627.7,61.3c0,0.3-0.3,0.6-0.6,0.6s-0.6-0.3-0.6-0.6c0-0.3,0.3-0.6,0.6-0.6S1627.7,61,1627.7,61.3z"/>
		<path class="st2" d="M1627.2,62c-0.4,0-0.7-0.3-0.7-0.7c0-0.4,0.3-0.7,0.7-0.7s0.7,0.3,0.7,0.7C1627.8,61.7,1627.5,62,1627.2,62z
			 M1627.2,60.8c-0.3,0-0.5,0.2-0.5,0.5c0,0.3,0.2,0.5,0.5,0.5c0.3,0,0.5-0.2,0.5-0.5C1627.6,61,1627.4,60.8,1627.2,60.8z"/>
		<path class="st2" d="M1636.2,58.8c0,0.3-0.3,0.6-0.6,0.6c-0.3,0-0.6-0.3-0.6-0.6s0.3-0.6,0.6-0.6
			C1635.9,58.2,1636.2,58.5,1636.2,58.8z"/>
		<path class="st2" d="M1635.6,59.5c-0.4,0-0.7-0.3-0.7-0.7c0-0.4,0.3-0.7,0.7-0.7s0.7,0.3,0.7,0.7
			C1636.3,59.2,1635.9,59.5,1635.6,59.5z M1635.6,58.3c-0.3,0-0.5,0.2-0.5,0.5c0,0.3,0.2,0.5,0.5,0.5c0.3,0,0.5-0.2,0.5-0.5
			C1636.1,58.5,1635.8,58.3,1635.6,58.3z"/>
		<path class="st2" d="M1622.5,63.3c0,0.3-0.3,0.6-0.6,0.6s-0.6-0.3-0.6-0.6s0.3-0.6,0.6-0.6S1622.5,62.9,1622.5,63.3z"/>
		<path class="st2" d="M1622,63.9c-0.4,0-0.7-0.3-0.7-0.7c0-0.4,0.3-0.7,0.7-0.7s0.7,0.3,0.7,0.7C1622.6,63.6,1622.3,63.9,1622,63.9
			z M1622,62.8c-0.3,0-0.5,0.2-0.5,0.5s0.2,0.5,0.5,0.5c0.3,0,0.5-0.2,0.5-0.5S1622.2,62.8,1622,62.8z"/>
		<path class="st2" d="M1631.8,62.4c0,0.3-0.3,0.6-0.6,0.6s-0.6-0.3-0.6-0.6s0.3-0.6,0.6-0.6S1631.8,62.1,1631.8,62.4z"/>
		<path class="st2" d="M1631.2,63.1c-0.4,0-0.7-0.3-0.7-0.7c0-0.4,0.3-0.7,0.7-0.7c0.4,0,0.7,0.3,0.7,0.7
			C1631.9,62.8,1631.6,63.1,1631.2,63.1z M1631.2,61.9c-0.3,0-0.5,0.2-0.5,0.5s0.2,0.5,0.5,0.5c0.3,0,0.5-0.2,0.5-0.5
			S1631.4,61.9,1631.2,61.9z"/>
		<path class="st2" d="M1626.4,65.1c0,0.3-0.3,0.6-0.6,0.6s-0.6-0.3-0.6-0.6c0-0.3,0.3-0.6,0.6-0.6S1626.4,64.8,1626.4,65.1z"/>
		<path class="st2" d="M1625.8,65.8c-0.4,0-0.7-0.3-0.7-0.7c0-0.4,0.3-0.7,0.7-0.7s0.7,0.3,0.7,0.7
			C1626.5,65.5,1626.2,65.8,1625.8,65.8z M1625.8,64.6c-0.3,0-0.5,0.2-0.5,0.5c0,0.3,0.2,0.5,0.5,0.5c0.3,0,0.5-0.2,0.5-0.5
			C1626.3,64.8,1626.1,64.6,1625.8,64.6z"/>
		<path class="st2" d="M1636.1,62.7c0,0.3-0.3,0.6-0.6,0.6s-0.6-0.3-0.6-0.6s0.3-0.6,0.6-0.6S1636.1,62.4,1636.1,62.7z"/>
		<path class="st2" d="M1635.5,63.4c-0.4,0-0.7-0.3-0.7-0.7c0-0.4,0.3-0.7,0.7-0.7c0.4,0,0.7,0.3,0.7,0.7
			C1636.2,63.1,1635.9,63.4,1635.5,63.4z M1635.5,62.2c-0.3,0-0.5,0.2-0.5,0.5s0.2,0.5,0.5,0.5c0.3,0,0.5-0.2,0.5-0.5
			S1635.8,62.2,1635.5,62.2z"/>
		<path class="st2" d="M1620.3,66.5c0,0.3-0.3,0.6-0.6,0.6s-0.6-0.3-0.6-0.6c0-0.3,0.3-0.6,0.6-0.6S1620.3,66.2,1620.3,66.5z"/>
		<path class="st2" d="M1619.8,67.2c-0.4,0-0.7-0.3-0.7-0.7s0.3-0.7,0.7-0.7c0.4,0,0.7,0.3,0.7,0.7S1620.1,67.2,1619.8,67.2z
			 M1619.8,66c-0.3,0-0.5,0.2-0.5,0.5c0,0.3,0.2,0.5,0.5,0.5c0.3,0,0.5-0.2,0.5-0.5C1620.2,66.2,1620,66,1619.8,66z"/>
		<path class="st2" d="M1630.7,66.2c0,0.3-0.3,0.6-0.6,0.6s-0.6-0.3-0.6-0.6c0-0.3,0.3-0.6,0.6-0.6S1630.7,65.8,1630.7,66.2z"/>
		<path class="st2" d="M1630.1,66.8c-0.4,0-0.7-0.3-0.7-0.7c0-0.4,0.3-0.7,0.7-0.7s0.7,0.3,0.7,0.7
			C1630.8,66.5,1630.5,66.8,1630.1,66.8z M1630.1,65.7c-0.3,0-0.5,0.2-0.5,0.5c0,0.3,0.2,0.5,0.5,0.5c0.3,0,0.5-0.2,0.5-0.5
			C1630.6,65.9,1630.4,65.7,1630.1,65.7z"/>
		<path class="st2" d="M1640.6,62.1c0,0.3-0.3,0.6-0.6,0.6s-0.6-0.3-0.6-0.6c0-0.3,0.3-0.6,0.6-0.6S1640.6,61.8,1640.6,62.1z"/>
		<path class="st2" d="M1640,62.8c-0.4,0-0.7-0.3-0.7-0.7c0-0.4,0.3-0.7,0.7-0.7c0.4,0,0.7,0.3,0.7,0.7
			C1640.7,62.5,1640.4,62.8,1640,62.8z M1640,61.7c-0.3,0-0.5,0.2-0.5,0.5c0,0.3,0.2,0.5,0.5,0.5c0.3,0,0.5-0.2,0.5-0.5
			C1640.5,61.9,1640.3,61.7,1640,61.7z"/>
		<path class="st2" d="M1624.5,68.4c0,0.3-0.3,0.6-0.6,0.6s-0.6-0.3-0.6-0.6c0-0.3,0.3-0.6,0.6-0.6S1624.5,68.1,1624.5,68.4z"/>
		<path class="st2" d="M1623.9,69.1c-0.4,0-0.7-0.3-0.7-0.7c0-0.4,0.3-0.7,0.7-0.7s0.7,0.3,0.7,0.7
			C1624.6,68.8,1624.3,69.1,1623.9,69.1z M1623.9,67.9c-0.3,0-0.5,0.2-0.5,0.5c0,0.3,0.2,0.5,0.5,0.5c0.3,0,0.5-0.2,0.5-0.5
			C1624.4,68.1,1624.2,67.9,1623.9,67.9z"/>
		<path class="st2" d="M1635.4,66.4c0,0.3-0.3,0.6-0.6,0.6s-0.6-0.3-0.6-0.6c0-0.3,0.3-0.6,0.6-0.6S1635.4,66.1,1635.4,66.4z"/>
		<path class="st2" d="M1634.8,67.1c-0.4,0-0.7-0.3-0.7-0.7c0-0.4,0.3-0.7,0.7-0.7s0.7,0.3,0.7,0.7
			C1635.5,66.8,1635.1,67.1,1634.8,67.1z M1634.8,65.9c-0.3,0-0.5,0.2-0.5,0.5c0,0.3,0.2,0.5,0.5,0.5c0.3,0,0.5-0.2,0.5-0.5
			C1635.3,66.2,1635,65.9,1634.8,65.9z"/>
		<path class="st2" d="M1645.1,60.7c0,0.3-0.3,0.6-0.6,0.6s-0.6-0.3-0.6-0.6c0-0.3,0.3-0.6,0.6-0.6S1645.1,60.4,1645.1,60.7z"/>
		<path class="st2" d="M1644.5,61.4c-0.4,0-0.7-0.3-0.7-0.7c0-0.4,0.3-0.7,0.7-0.7c0.4,0,0.7,0.3,0.7,0.7
			C1645.2,61.1,1644.9,61.4,1644.5,61.4z M1644.5,60.2c-0.3,0-0.5,0.2-0.5,0.5c0,0.3,0.2,0.5,0.5,0.5c0.3,0,0.5-0.2,0.5-0.5
			C1645,60.4,1644.7,60.2,1644.5,60.2z"/>
		<path class="st2" d="M1629.1,69.5c0,0.3-0.3,0.6-0.6,0.6s-0.6-0.3-0.6-0.6s0.3-0.6,0.6-0.6S1629.1,69.2,1629.1,69.5z"/>
		<path class="st2" d="M1628.5,70.2c-0.4,0-0.7-0.3-0.7-0.7c0-0.4,0.3-0.7,0.7-0.7s0.7,0.3,0.7,0.7
			C1629.2,69.9,1628.9,70.2,1628.5,70.2z M1628.5,69.1c-0.3,0-0.5,0.2-0.5,0.5c0,0.3,0.2,0.5,0.5,0.5c0.3,0,0.5-0.2,0.5-0.5
			C1629,69.3,1628.8,69.1,1628.5,69.1z"/>
		<path class="st2" d="M1640.2,65.9c0,0.3-0.3,0.6-0.6,0.6c-0.3,0-0.6-0.3-0.6-0.6c0-0.3,0.3-0.6,0.6-0.6
			C1639.9,65.3,1640.2,65.5,1640.2,65.9z"/>
		<path class="st2" d="M1639.6,66.5c-0.4,0-0.7-0.3-0.7-0.7c0-0.4,0.3-0.7,0.7-0.7c0.4,0,0.7,0.3,0.7,0.7
			C1640.2,66.2,1639.9,66.5,1639.6,66.5z M1639.6,65.4c-0.3,0-0.5,0.2-0.5,0.5c0,0.3,0.2,0.5,0.5,0.5c0.3,0,0.5-0.2,0.5-0.5
			C1640.1,65.6,1639.8,65.4,1639.6,65.4z"/>
		<path class="st2" d="M1622.1,71.3c0,0.3-0.3,0.6-0.6,0.6c-0.3,0-0.6-0.3-0.6-0.6c0-0.3,0.3-0.6,0.6-0.6
			C1621.9,70.7,1622.1,70.9,1622.1,71.3z"/>
		<path class="st2" d="M1621.5,71.9c-0.4,0-0.7-0.3-0.7-0.7c0-0.4,0.3-0.7,0.7-0.7c0.4,0,0.7,0.3,0.7,0.7
			C1622.2,71.6,1621.9,71.9,1621.5,71.9z M1621.5,70.8c-0.3,0-0.5,0.2-0.5,0.5c0,0.3,0.2,0.5,0.5,0.5c0.3,0,0.5-0.2,0.5-0.5
			C1622,71,1621.8,70.8,1621.5,70.8z"/>
		<path class="st2" d="M1634,69.9c0,0.3-0.3,0.6-0.6,0.6c-0.3,0-0.6-0.3-0.6-0.6c0-0.3,0.3-0.6,0.6-0.6
			C1633.8,69.3,1634,69.6,1634,69.9z"/>
		<path class="st2" d="M1633.5,70.6c-0.4,0-0.7-0.3-0.7-0.7c0-0.4,0.3-0.7,0.7-0.7s0.7,0.3,0.7,0.7
			C1634.1,70.3,1633.8,70.6,1633.5,70.6z M1633.5,69.4c-0.3,0-0.5,0.2-0.5,0.5c0,0.3,0.2,0.5,0.5,0.5c0.3,0,0.5-0.2,0.5-0.5
			C1633.9,69.6,1633.7,69.4,1633.5,69.4z"/>
		<path class="st2" d="M1645,64.4c0,0.3-0.3,0.6-0.6,0.6c-0.3,0-0.6-0.3-0.6-0.6c0-0.3,0.3-0.6,0.6-0.6
			C1644.7,63.8,1645,64.1,1645,64.4z"/>
		<path class="st2" d="M1644.4,65.1c-0.4,0-0.7-0.3-0.7-0.7c0-0.4,0.3-0.7,0.7-0.7s0.7,0.3,0.7,0.7
			C1645.1,64.8,1644.8,65.1,1644.4,65.1z M1644.4,63.9c-0.3,0-0.5,0.2-0.5,0.5c0,0.3,0.2,0.5,0.5,0.5s0.5-0.2,0.5-0.5
			C1644.9,64.2,1644.6,63.9,1644.4,63.9z"/>
		<path class="st2" d="M1627,72.6c0,0.3-0.3,0.6-0.6,0.6s-0.6-0.3-0.6-0.6c0-0.3,0.3-0.6,0.6-0.6S1627,72.3,1627,72.6z"/>
		<path class="st2" d="M1626.4,73.3c-0.4,0-0.7-0.3-0.7-0.7c0-0.4,0.3-0.7,0.7-0.7s0.7,0.3,0.7,0.7
			C1627.1,73,1626.8,73.3,1626.4,73.3z M1626.4,72.1c-0.3,0-0.5,0.2-0.5,0.5c0,0.3,0.2,0.5,0.5,0.5c0.3,0,0.5-0.2,0.5-0.5
			C1626.9,72.3,1626.7,72.1,1626.4,72.1z"/>
		<path class="st2" d="M1639.2,69.4c0,0.3-0.3,0.6-0.6,0.6c-0.3,0-0.6-0.3-0.6-0.6s0.3-0.6,0.6-0.6
			C1638.9,68.9,1639.2,69.1,1639.2,69.4z"/>
		<path class="st2" d="M1638.6,70.1c-0.4,0-0.7-0.3-0.7-0.7c0-0.4,0.3-0.7,0.7-0.7s0.7,0.3,0.7,0.7
			C1639.3,69.8,1638.9,70.1,1638.6,70.1z M1638.6,68.9c-0.3,0-0.5,0.2-0.5,0.5c0,0.3,0.2,0.5,0.5,0.5c0.3,0,0.5-0.2,0.5-0.5
			C1639.1,69.2,1638.8,68.9,1638.6,68.9z"/>
		<path class="st2" d="M1619.3,73.7c0,0.3-0.3,0.6-0.6,0.6c-0.3,0-0.6-0.3-0.6-0.6c0-0.3,0.3-0.6,0.6-0.6
			C1619.1,73.1,1619.3,73.4,1619.3,73.7z"/>
		<path class="st2" d="M1618.7,74.4c-0.4,0-0.7-0.3-0.7-0.7c0-0.4,0.3-0.7,0.7-0.7s0.7,0.3,0.7,0.7
			C1619.4,74.1,1619.1,74.4,1618.7,74.4z M1618.7,73.2c-0.3,0-0.5,0.2-0.5,0.5c0,0.3,0.2,0.5,0.5,0.5c0.3,0,0.5-0.2,0.5-0.5
			C1619.2,73.4,1619,73.2,1618.7,73.2z"/>
		<path class="st2" d="M1649.6,62.1c0,0.3-0.3,0.6-0.6,0.6c-0.3,0-0.6-0.3-0.6-0.6s0.3-0.6,0.6-0.6
			C1649.4,61.6,1649.6,61.8,1649.6,62.1z"/>
		<path class="st2" d="M1649.1,62.8c-0.4,0-0.7-0.3-0.7-0.7s0.3-0.7,0.7-0.7s0.7,0.3,0.7,0.7S1649.4,62.8,1649.1,62.8z M1649.1,61.7
			c-0.3,0-0.5,0.2-0.5,0.5s0.2,0.5,0.5,0.5s0.5-0.2,0.5-0.5S1649.3,61.7,1649.1,61.7z"/>
		<path class="st2" d="M1632.2,73.2c0,0.3-0.3,0.6-0.6,0.6s-0.6-0.3-0.6-0.6c0-0.3,0.3-0.6,0.6-0.6S1632.2,72.8,1632.2,73.2z"/>
		<path class="st2" d="M1631.6,73.8c-0.4,0-0.7-0.3-0.7-0.7c0-0.4,0.3-0.7,0.7-0.7c0.4,0,0.7,0.3,0.7,0.7
			C1632.3,73.5,1632,73.8,1631.6,73.8z M1631.6,72.7c-0.3,0-0.5,0.2-0.5,0.5c0,0.3,0.2,0.5,0.5,0.5c0.3,0,0.5-0.2,0.5-0.5
			C1632.1,72.9,1631.9,72.7,1631.6,72.7z"/>
		<path class="st2" d="M1644.3,68.1c0,0.3-0.3,0.6-0.6,0.6s-0.6-0.3-0.6-0.6c0-0.3,0.3-0.6,0.6-0.6S1644.3,67.8,1644.3,68.1z"/>
		<path class="st2" d="M1643.7,68.8c-0.4,0-0.7-0.3-0.7-0.7s0.3-0.7,0.7-0.7s0.7,0.3,0.7,0.7S1644.1,68.8,1643.7,68.8z M1643.7,67.6
			c-0.3,0-0.5,0.2-0.5,0.5s0.2,0.5,0.5,0.5c0.3,0,0.5-0.2,0.5-0.5S1644,67.6,1643.7,67.6z"/>
		<path class="st2" d="M1624.5,75.3c0,0.3-0.3,0.6-0.6,0.6c-0.3,0-0.6-0.3-0.6-0.6s0.3-0.6,0.6-0.6
			C1624.2,74.7,1624.5,75,1624.5,75.3z"/>
		<path class="st2" d="M1623.9,76c-0.4,0-0.7-0.3-0.7-0.7c0-0.4,0.3-0.7,0.7-0.7s0.7,0.3,0.7,0.7C1624.6,75.7,1624.2,76,1623.9,76z
			 M1623.9,74.8c-0.3,0-0.5,0.2-0.5,0.5c0,0.3,0.2,0.5,0.5,0.5c0.3,0,0.5-0.2,0.5-0.5C1624.4,75,1624.1,74.8,1623.9,74.8z"/>
		<path class="st2" d="M1637.6,72.8c0,0.3-0.3,0.6-0.6,0.6s-0.6-0.3-0.6-0.6c0-0.3,0.3-0.6,0.6-0.6S1637.6,72.5,1637.6,72.8z"/>
		<path class="st2" d="M1637.1,73.5c-0.4,0-0.7-0.3-0.7-0.7c0-0.4,0.3-0.7,0.7-0.7s0.7,0.3,0.7,0.7
			C1637.7,73.2,1637.4,73.5,1637.1,73.5z M1637.1,72.4c-0.3,0-0.5,0.2-0.5,0.5c0,0.3,0.2,0.5,0.5,0.5c0.3,0,0.5-0.2,0.5-0.5
			C1637.6,72.6,1637.3,72.4,1637.1,72.4z"/>
		<path class="st2" d="M1649.3,65.9c0,0.3-0.3,0.6-0.6,0.6c-0.3,0-0.6-0.3-0.6-0.6c0-0.3,0.3-0.6,0.6-0.6
			C1649.1,65.3,1649.3,65.5,1649.3,65.9z"/>
		<path class="st2" d="M1648.8,66.6c-0.4,0-0.7-0.3-0.7-0.7c0-0.4,0.3-0.7,0.7-0.7c0.4,0,0.7,0.3,0.7,0.7
			C1649.4,66.2,1649.1,66.6,1648.8,66.6z M1648.8,65.4c-0.3,0-0.5,0.2-0.5,0.5c0,0.3,0.2,0.5,0.5,0.5c0.3,0,0.5-0.2,0.5-0.5
			C1649.2,65.6,1649,65.4,1648.8,65.4z"/>
		<path class="st2" d="M1629.9,76.1c0,0.3-0.3,0.6-0.6,0.6s-0.6-0.3-0.6-0.6c0-0.3,0.3-0.6,0.6-0.6S1629.9,75.8,1629.9,76.1z"/>
		<path class="st2" d="M1629.4,76.8c-0.4,0-0.7-0.3-0.7-0.7c0-0.4,0.3-0.7,0.7-0.7c0.4,0,0.7,0.3,0.7,0.7
			C1630,76.5,1629.7,76.8,1629.4,76.8z M1629.4,75.6c-0.3,0-0.5,0.2-0.5,0.5c0,0.3,0.2,0.5,0.5,0.5c0.3,0,0.5-0.2,0.5-0.5
			C1629.8,75.9,1629.6,75.6,1629.4,75.6z"/>
		<path class="st2" d="M1643.1,71.7c0,0.3-0.3,0.6-0.6,0.6c-0.3,0-0.6-0.3-0.6-0.6c0-0.3,0.3-0.6,0.6-0.6
			C1642.9,71.1,1643.1,71.3,1643.1,71.7z"/>
		<path class="st2" d="M1642.6,72.3c-0.4,0-0.7-0.3-0.7-0.7c0-0.4,0.3-0.7,0.7-0.7s0.7,0.3,0.7,0.7
			C1643.2,72,1642.9,72.3,1642.6,72.3z M1642.6,71.2c-0.3,0-0.5,0.2-0.5,0.5c0,0.3,0.2,0.5,0.5,0.5s0.5-0.2,0.5-0.5
			C1643,71.4,1642.8,71.2,1642.6,71.2z"/>
		<path class="st2" d="M1621.5,77.7c0,0.3-0.3,0.6-0.6,0.6s-0.6-0.3-0.6-0.6c0-0.3,0.3-0.6,0.6-0.6S1621.5,77.4,1621.5,77.7z"/>
		<path class="st2" d="M1620.9,78.4c-0.4,0-0.7-0.3-0.7-0.7c0-0.4,0.3-0.7,0.7-0.7c0.4,0,0.7,0.3,0.7,0.7
			C1621.6,78.1,1621.3,78.4,1620.9,78.4z M1620.9,77.2c-0.3,0-0.5,0.2-0.5,0.5c0,0.3,0.2,0.5,0.5,0.5c0.3,0,0.5-0.2,0.5-0.5
			C1621.4,77.4,1621.2,77.2,1620.9,77.2z"/>
		<path class="st2" d="M1654.1,62.8c0,0.3-0.3,0.6-0.6,0.6s-0.6-0.3-0.6-0.6c0-0.3,0.3-0.6,0.6-0.6S1654.1,62.5,1654.1,62.8z"/>
		<path class="st2" d="M1653.5,63.5c-0.4,0-0.7-0.3-0.7-0.7c0-0.4,0.3-0.7,0.7-0.7s0.7,0.3,0.7,0.7
			C1654.2,63.2,1653.9,63.5,1653.5,63.5z M1653.5,62.3c-0.3,0-0.5,0.2-0.5,0.5s0.2,0.5,0.5,0.5c0.3,0,0.5-0.2,0.5-0.5
			S1653.8,62.3,1653.5,62.3z"/>
		<path class="st2" d="M1635.7,76.1c0,0.3-0.3,0.6-0.6,0.6s-0.6-0.3-0.6-0.6c0-0.3,0.3-0.6,0.6-0.6S1635.7,75.7,1635.7,76.1z"/>
		<path class="st2" d="M1635.1,76.7c-0.4,0-0.7-0.3-0.7-0.7c0-0.4,0.3-0.7,0.7-0.7s0.7,0.3,0.7,0.7
			C1635.8,76.4,1635.5,76.7,1635.1,76.7z M1635.1,75.6c-0.3,0-0.5,0.2-0.5,0.5c0,0.3,0.2,0.5,0.5,0.5c0.3,0,0.5-0.2,0.5-0.5
			C1635.6,75.8,1635.4,75.6,1635.1,75.6z"/>
		<path class="st2" d="M1648.5,69.6c0,0.3-0.3,0.6-0.6,0.6s-0.6-0.3-0.6-0.6c0-0.3,0.3-0.6,0.6-0.6S1648.5,69.3,1648.5,69.6z"/>
		<path class="st2" d="M1648,70.3c-0.4,0-0.7-0.3-0.7-0.7s0.3-0.7,0.7-0.7s0.7,0.3,0.7,0.7S1648.3,70.3,1648,70.3z M1648,69.1
			c-0.3,0-0.5,0.2-0.5,0.5c0,0.3,0.2,0.5,0.5,0.5s0.5-0.2,0.5-0.5C1648.4,69.3,1648.2,69.1,1648,69.1z"/>
		<path class="st2" d="M1627.3,78.8c0,0.3-0.3,0.6-0.6,0.6c-0.3,0-0.6-0.3-0.6-0.6c0-0.3,0.3-0.6,0.6-0.6
			C1627,78.2,1627.3,78.5,1627.3,78.8z"/>
		<path class="st2" d="M1626.7,79.5c-0.4,0-0.7-0.3-0.7-0.7c0-0.4,0.3-0.7,0.7-0.7c0.4,0,0.7,0.3,0.7,0.7
			C1627.4,79.2,1627,79.5,1626.7,79.5z M1626.7,78.3c-0.3,0-0.5,0.2-0.5,0.5c0,0.3,0.2,0.5,0.5,0.5c0.3,0,0.5-0.2,0.5-0.5
			C1627.2,78.5,1626.9,78.3,1626.7,78.3z"/>
		<path class="st2" d="M1641.5,75.1c0,0.3-0.3,0.6-0.6,0.6c-0.3,0-0.6-0.3-0.6-0.6c0-0.3,0.3-0.6,0.6-0.6
			C1641.2,74.5,1641.5,74.8,1641.5,75.1z"/>
		<path class="st2" d="M1640.9,75.8c-0.4,0-0.7-0.3-0.7-0.7s0.3-0.7,0.7-0.7s0.7,0.3,0.7,0.7S1641.3,75.8,1640.9,75.8z M1640.9,74.6
			c-0.3,0-0.5,0.2-0.5,0.5c0,0.3,0.2,0.5,0.5,0.5c0.3,0,0.5-0.2,0.5-0.5C1641.4,74.8,1641.2,74.6,1640.9,74.6z"/>
		<path class="st2" d="M1618.3,79.7c0,0.3-0.3,0.6-0.6,0.6c-0.3,0-0.6-0.3-0.6-0.6c0-0.3,0.3-0.6,0.6-0.6
			C1618,79.1,1618.3,79.4,1618.3,79.7z"/>
		<path class="st2" d="M1617.7,80.4c-0.4,0-0.7-0.3-0.7-0.7c0-0.4,0.3-0.7,0.7-0.7c0.4,0,0.7,0.3,0.7,0.7
			C1618.4,80.1,1618.1,80.4,1617.7,80.4z M1617.7,79.2c-0.3,0-0.5,0.2-0.5,0.5c0,0.3,0.2,0.5,0.5,0.5c0.3,0,0.5-0.2,0.5-0.5
			C1618.2,79.4,1618,79.2,1617.7,79.2z"/>
		<path class="st2" d="M1653.7,66.6c0,0.3-0.3,0.6-0.6,0.6s-0.6-0.3-0.6-0.6s0.3-0.6,0.6-0.6S1653.7,66.3,1653.7,66.6z"/>
		<path class="st2" d="M1653.1,67.3c-0.4,0-0.7-0.3-0.7-0.7c0-0.4,0.3-0.7,0.7-0.7c0.4,0,0.7,0.3,0.7,0.7
			C1653.8,67,1653.5,67.3,1653.1,67.3z M1653.1,66.1c-0.3,0-0.5,0.2-0.5,0.5s0.2,0.5,0.5,0.5c0.3,0,0.5-0.2,0.5-0.5
			S1653.4,66.1,1653.1,66.1z"/>
		<path class="st2" d="M1633.3,79.1c0,0.3-0.3,0.6-0.6,0.6s-0.6-0.3-0.6-0.6c0-0.3,0.3-0.6,0.6-0.6S1633.3,78.7,1633.3,79.1z"/>
		<path class="st2" d="M1632.7,79.7c-0.4,0-0.7-0.3-0.7-0.7c0-0.4,0.3-0.7,0.7-0.7s0.7,0.3,0.7,0.7
			C1633.4,79.4,1633,79.7,1632.7,79.7z M1632.7,78.6c-0.3,0-0.5,0.2-0.5,0.5c0,0.3,0.2,0.5,0.5,0.5c0.3,0,0.5-0.2,0.5-0.5
			C1633.2,78.8,1632.9,78.6,1632.7,78.6z"/>
		<path class="st2" d="M1647.3,73.2c0,0.3-0.3,0.6-0.6,0.6c-0.3,0-0.6-0.3-0.6-0.6c0-0.3,0.3-0.6,0.6-0.6
			C1647,72.6,1647.3,72.9,1647.3,73.2z"/>
		<path class="st2" d="M1646.7,73.9c-0.4,0-0.7-0.3-0.7-0.7c0-0.4,0.3-0.7,0.7-0.7c0.4,0,0.7,0.3,0.7,0.7
			C1647.4,73.6,1647.1,73.9,1646.7,73.9z M1646.7,72.7c-0.3,0-0.5,0.2-0.5,0.5c0,0.3,0.2,0.5,0.5,0.5c0.3,0,0.5-0.2,0.5-0.5
			C1647.2,72.9,1646.9,72.7,1646.7,72.7z"/>
		<path class="st2" d="M1624.2,81.2c0,0.3-0.3,0.6-0.6,0.6s-0.6-0.3-0.6-0.6c0-0.3,0.3-0.6,0.6-0.6S1624.2,80.9,1624.2,81.2z"/>
		<path class="st2" d="M1623.6,81.9c-0.4,0-0.7-0.3-0.7-0.7s0.3-0.7,0.7-0.7c0.4,0,0.7,0.3,0.7,0.7S1624,81.9,1623.6,81.9z
			 M1623.6,80.7c-0.3,0-0.5,0.2-0.5,0.5c0,0.3,0.2,0.5,0.5,0.5c0.3,0,0.5-0.2,0.5-0.5C1624.1,80.9,1623.9,80.7,1623.6,80.7z"/>
		<path class="st2" d="M1658.5,62.8c0,0.3-0.3,0.6-0.6,0.6s-0.6-0.3-0.6-0.6c0-0.3,0.3-0.6,0.6-0.6S1658.5,62.5,1658.5,62.8z"/>
		<path class="st2" d="M1657.9,63.5c-0.4,0-0.7-0.3-0.7-0.7c0-0.4,0.3-0.7,0.7-0.7s0.7,0.3,0.7,0.7
			C1658.6,63.2,1658.3,63.5,1657.9,63.5z M1657.9,62.3c-0.3,0-0.5,0.2-0.5,0.5c0,0.3,0.2,0.5,0.5,0.5s0.5-0.2,0.5-0.5
			C1658.4,62.5,1658.2,62.3,1657.9,62.3z"/>
		<path class="st2" d="M1639.4,78.4c0,0.3-0.3,0.6-0.6,0.6c-0.3,0-0.6-0.3-0.6-0.6c0-0.3,0.3-0.6,0.6-0.6
			C1639.1,77.8,1639.4,78,1639.4,78.4z"/>
		<path class="st2" d="M1638.8,79.1c-0.4,0-0.7-0.3-0.7-0.7c0-0.4,0.3-0.7,0.7-0.7s0.7,0.3,0.7,0.7
			C1639.5,78.7,1639.2,79.1,1638.8,79.1z M1638.8,77.9c-0.3,0-0.5,0.2-0.5,0.5c0,0.3,0.2,0.5,0.5,0.5c0.3,0,0.5-0.2,0.5-0.5
			C1639.3,78.1,1639.1,77.9,1638.8,77.9z"/>
		<path class="st2" d="M1652.8,70.4c0,0.3-0.3,0.6-0.6,0.6c-0.3,0-0.6-0.3-0.6-0.6c0-0.3,0.3-0.6,0.6-0.6
			C1652.6,69.8,1652.8,70.1,1652.8,70.4z"/>
		<path class="st2" d="M1652.2,71.1c-0.4,0-0.7-0.3-0.7-0.7c0-0.4,0.3-0.7,0.7-0.7s0.7,0.3,0.7,0.7
			C1652.9,70.8,1652.6,71.1,1652.2,71.1z M1652.2,69.9c-0.3,0-0.5,0.2-0.5,0.5c0,0.3,0.2,0.5,0.5,0.5c0.3,0,0.5-0.2,0.5-0.5
			C1652.7,70.1,1652.5,69.9,1652.2,69.9z"/>
		<path class="st2" d="M1630.4,81.8c0,0.3-0.3,0.6-0.6,0.6c-0.3,0-0.6-0.3-0.6-0.6c0-0.3,0.3-0.6,0.6-0.6
			C1630.2,81.2,1630.4,81.5,1630.4,81.8z"/>
		<path class="st2" d="M1629.9,82.5c-0.4,0-0.7-0.3-0.7-0.7c0-0.4,0.3-0.7,0.7-0.7c0.4,0,0.7,0.3,0.7,0.7
			C1630.5,82.2,1630.2,82.5,1629.9,82.5z M1629.9,81.3c-0.3,0-0.5,0.2-0.5,0.5c0,0.3,0.2,0.5,0.5,0.5c0.3,0,0.5-0.2,0.5-0.5
			C1630.3,81.5,1630.1,81.3,1629.9,81.3z"/>
		<path class="st2" d="M1645.5,76.7c0,0.3-0.3,0.6-0.6,0.6s-0.6-0.3-0.6-0.6c0-0.3,0.3-0.6,0.6-0.6S1645.5,76.4,1645.5,76.7z"/>
		<path class="st2" d="M1644.9,77.4c-0.4,0-0.7-0.3-0.7-0.7c0-0.4,0.3-0.7,0.7-0.7c0.4,0,0.7,0.3,0.7,0.7
			C1645.6,77.1,1645.3,77.4,1644.9,77.4z M1644.9,76.3c-0.3,0-0.5,0.2-0.5,0.5c0,0.3,0.2,0.5,0.5,0.5c0.3,0,0.5-0.2,0.5-0.5
			C1645.4,76.5,1645.2,76.3,1644.9,76.3z"/>
		<path class="st2" d="M1620.8,83.2c0,0.3-0.3,0.6-0.6,0.6c-0.3,0-0.6-0.3-0.6-0.6c0-0.3,0.3-0.6,0.6-0.6
			C1620.5,82.6,1620.8,82.9,1620.8,83.2z"/>
		<path class="st2" d="M1620.2,83.9c-0.4,0-0.7-0.3-0.7-0.7c0-0.4,0.3-0.7,0.7-0.7c0.4,0,0.7,0.3,0.7,0.7
			C1620.9,83.6,1620.6,83.9,1620.2,83.9z M1620.2,82.7c-0.3,0-0.5,0.2-0.5,0.5s0.2,0.5,0.5,0.5c0.3,0,0.5-0.2,0.5-0.5
			S1620.5,82.7,1620.2,82.7z"/>
		<path class="st2" d="M1658.1,66.7c0,0.3-0.3,0.6-0.6,0.6s-0.6-0.3-0.6-0.6c0-0.3,0.3-0.6,0.6-0.6S1658.1,66.4,1658.1,66.7z"/>
		<path class="st2" d="M1657.5,67.4c-0.4,0-0.7-0.3-0.7-0.7c0-0.4,0.3-0.7,0.7-0.7s0.7,0.3,0.7,0.7
			C1658.2,67.1,1657.8,67.4,1657.5,67.4z M1657.5,66.2c-0.3,0-0.5,0.2-0.5,0.5c0,0.3,0.2,0.5,0.5,0.5s0.5-0.2,0.5-0.5
			C1658,66.4,1657.7,66.2,1657.5,66.2z"/>
		<path class="st2" d="M1636.9,81.4c0,0.3-0.3,0.6-0.6,0.6c-0.3,0-0.6-0.3-0.6-0.6c0-0.3,0.3-0.6,0.6-0.6
			C1636.6,80.9,1636.9,81.1,1636.9,81.4z"/>
		<path class="st2" d="M1636.3,82.1c-0.4,0-0.7-0.3-0.7-0.7c0-0.4,0.3-0.7,0.7-0.7s0.7,0.3,0.7,0.7
			C1637,81.8,1636.7,82.1,1636.3,82.1z M1636.3,81c-0.3,0-0.5,0.2-0.5,0.5c0,0.3,0.2,0.5,0.5,0.5c0.3,0,0.5-0.2,0.5-0.5
			C1636.8,81.2,1636.6,81,1636.3,81z"/>
		<path class="st2" d="M1651.5,74.2c0,0.3-0.3,0.6-0.6,0.6s-0.6-0.3-0.6-0.6c0-0.3,0.3-0.6,0.6-0.6S1651.5,73.8,1651.5,74.2z"/>
		<path class="st2" d="M1650.9,74.8c-0.4,0-0.7-0.3-0.7-0.7c0-0.4,0.3-0.7,0.7-0.7c0.4,0,0.7,0.3,0.7,0.7
			C1651.6,74.5,1651.3,74.8,1650.9,74.8z M1650.9,73.7c-0.3,0-0.5,0.2-0.5,0.5c0,0.3,0.2,0.5,0.5,0.5c0.3,0,0.5-0.2,0.5-0.5
			C1651.4,73.9,1651.2,73.7,1650.9,73.7z"/>
		<path class="st2" d="M1627.3,84.2c0,0.3-0.3,0.6-0.6,0.6s-0.6-0.3-0.6-0.6c0-0.3,0.3-0.6,0.6-0.6S1627.3,83.9,1627.3,84.2z"/>
		<path class="st2" d="M1626.7,84.9c-0.4,0-0.7-0.3-0.7-0.7c0-0.4,0.3-0.7,0.7-0.7s0.7,0.3,0.7,0.7
			C1627.4,84.6,1627.1,84.9,1626.7,84.9z M1626.7,83.7c-0.3,0-0.5,0.2-0.5,0.5c0,0.3,0.2,0.5,0.5,0.5c0.3,0,0.5-0.2,0.5-0.5
			C1627.2,84,1627,83.7,1626.7,83.7z"/>
		<path class="st2" d="M1662.8,62.2c0,0.3-0.3,0.6-0.6,0.6c-0.3,0-0.6-0.3-0.6-0.6c0-0.3,0.3-0.6,0.6-0.6
			C1662.5,61.6,1662.8,61.8,1662.8,62.2z"/>
		<path class="st2" d="M1662.2,62.9c-0.4,0-0.7-0.3-0.7-0.7c0-0.4,0.3-0.7,0.7-0.7c0.4,0,0.7,0.3,0.7,0.7
			C1662.9,62.5,1662.6,62.9,1662.2,62.9z M1662.2,61.7c-0.3,0-0.5,0.2-0.5,0.5c0,0.3,0.2,0.5,0.5,0.5c0.3,0,0.5-0.2,0.5-0.5
			C1662.7,61.9,1662.5,61.7,1662.2,61.7z"/>
		<path class="st2" d="M1643.3,80.1c0,0.3-0.3,0.6-0.6,0.6c-0.3,0-0.6-0.3-0.6-0.6c0-0.3,0.3-0.6,0.6-0.6
			C1643.1,79.5,1643.3,79.8,1643.3,80.1z"/>
		<path class="st2" d="M1642.8,80.8c-0.4,0-0.7-0.3-0.7-0.7c0-0.4,0.3-0.7,0.7-0.7s0.7,0.3,0.7,0.7
			C1643.4,80.5,1643.1,80.8,1642.8,80.8z M1642.8,79.6c-0.3,0-0.5,0.2-0.5,0.5c0,0.3,0.2,0.5,0.5,0.5c0.3,0,0.5-0.2,0.5-0.5
			C1643.2,79.9,1643,79.6,1642.8,79.6z"/>
		<path class="st2" d="M1617.1,84.9c0,0.3-0.3,0.6-0.6,0.6c-0.3,0-0.6-0.3-0.6-0.6c0-0.3,0.3-0.6,0.6-0.6
			C1616.9,84.3,1617.1,84.6,1617.1,84.9z"/>
		<path class="st2" d="M1616.6,85.6c-0.4,0-0.7-0.3-0.7-0.7c0-0.4,0.3-0.7,0.7-0.7s0.7,0.3,0.7,0.7
			C1617.2,85.3,1616.9,85.6,1616.6,85.6z M1616.6,84.4c-0.3,0-0.5,0.2-0.5,0.5c0,0.3,0.2,0.5,0.5,0.5c0.3,0,0.5-0.2,0.5-0.5
			C1617,84.6,1616.8,84.4,1616.6,84.4z"/>
		<path class="st2" d="M1657.1,70.6c0,0.3-0.3,0.6-0.6,0.6s-0.6-0.3-0.6-0.6c0-0.3,0.3-0.6,0.6-0.6S1657.1,70.3,1657.1,70.6z"/>
		<path class="st2" d="M1656.6,71.3c-0.4,0-0.7-0.3-0.7-0.7c0-0.4,0.3-0.7,0.7-0.7s0.7,0.3,0.7,0.7
			C1657.2,71,1656.9,71.3,1656.6,71.3z M1656.6,70.2c-0.3,0-0.5,0.2-0.5,0.5c0,0.3,0.2,0.5,0.5,0.5s0.5-0.2,0.5-0.5
			C1657,70.4,1656.8,70.2,1656.6,70.2z"/>
		<path class="st2" d="M1634,84.3c0,0.3-0.3,0.6-0.6,0.6s-0.6-0.3-0.6-0.6c0-0.3,0.3-0.6,0.6-0.6S1634,83.9,1634,84.3z"/>
		<path class="st2" d="M1633.4,85c-0.4,0-0.7-0.3-0.7-0.7c0-0.4,0.3-0.7,0.7-0.7c0.4,0,0.7,0.3,0.7,0.7
			C1634.1,84.6,1633.8,85,1633.4,85z M1633.4,83.8c-0.3,0-0.5,0.2-0.5,0.5c0,0.3,0.2,0.5,0.5,0.5c0.3,0,0.5-0.2,0.5-0.5
			C1633.9,84,1633.7,83.8,1633.4,83.8z"/>
		<path class="st2" d="M1649.7,77.8c0,0.3-0.3,0.6-0.6,0.6s-0.6-0.3-0.6-0.6c0-0.3,0.3-0.6,0.6-0.6S1649.7,77.5,1649.7,77.8z"/>
		<path class="st2" d="M1649.1,78.5c-0.4,0-0.7-0.3-0.7-0.7c0-0.4,0.3-0.7,0.7-0.7s0.7,0.3,0.7,0.7
			C1649.8,78.2,1649.5,78.5,1649.1,78.5z M1649.1,77.3c-0.3,0-0.5,0.2-0.5,0.5c0,0.3,0.2,0.5,0.5,0.5c0.3,0,0.5-0.2,0.5-0.5
			C1649.6,77.6,1649.4,77.3,1649.1,77.3z"/>
		<path class="st2" d="M1623.8,86.3c0,0.3-0.3,0.6-0.6,0.6c-0.3,0-0.6-0.3-0.6-0.6c0-0.3,0.3-0.6,0.6-0.6
			C1623.5,85.8,1623.8,86,1623.8,86.3z"/>
		<path class="st2" d="M1623.2,87c-0.4,0-0.7-0.3-0.7-0.7c0-0.4,0.3-0.7,0.7-0.7c0.4,0,0.7,0.3,0.7,0.7
			C1623.9,86.7,1623.6,87,1623.2,87z M1623.2,85.9c-0.3,0-0.5,0.2-0.5,0.5c0,0.3,0.2,0.5,0.5,0.5c0.3,0,0.5-0.2,0.5-0.5
			C1623.7,86.1,1623.5,85.9,1623.2,85.9z"/>
		<path class="st2" d="M1662.3,66.2c0,0.3-0.3,0.6-0.6,0.6s-0.6-0.3-0.6-0.6c0-0.3,0.3-0.6,0.6-0.6S1662.3,65.9,1662.3,66.2z"/>
		<path class="st2" d="M1661.8,66.9c-0.4,0-0.7-0.3-0.7-0.7c0-0.4,0.3-0.7,0.7-0.7c0.4,0,0.7,0.3,0.7,0.7
			C1662.4,66.6,1662.1,66.9,1661.8,66.9z M1661.8,65.8c-0.3,0-0.5,0.2-0.5,0.5c0,0.3,0.2,0.5,0.5,0.5c0.3,0,0.5-0.2,0.5-0.5
			C1662.2,66,1662,65.8,1661.8,65.8z"/>
		<path class="st2" d="M1640.8,83.3c0,0.3-0.3,0.6-0.6,0.6s-0.6-0.3-0.6-0.6c0-0.3,0.3-0.6,0.6-0.6S1640.8,83,1640.8,83.3z"/>
		<path class="st2" d="M1640.2,84c-0.4,0-0.7-0.3-0.7-0.7c0-0.4,0.3-0.7,0.7-0.7s0.7,0.3,0.7,0.7C1640.9,83.7,1640.5,84,1640.2,84z
			 M1640.2,82.8c-0.3,0-0.5,0.2-0.5,0.5c0,0.3,0.2,0.5,0.5,0.5s0.5-0.2,0.5-0.5C1640.7,83.1,1640.4,82.8,1640.2,82.8z"/>
		<path class="st2" d="M1655.8,74.6c0,0.3-0.3,0.6-0.6,0.6c-0.3,0-0.6-0.3-0.6-0.6c0-0.3,0.3-0.6,0.6-0.6
			C1655.5,74,1655.8,74.2,1655.8,74.6z"/>
		<path class="st2" d="M1655.2,75.2c-0.4,0-0.7-0.3-0.7-0.7c0-0.4,0.3-0.7,0.7-0.7s0.7,0.3,0.7,0.7
			C1655.9,74.9,1655.6,75.2,1655.2,75.2z M1655.2,74.1c-0.3,0-0.5,0.2-0.5,0.5c0,0.3,0.2,0.5,0.5,0.5c0.3,0,0.5-0.2,0.5-0.5
			C1655.7,74.3,1655.5,74.1,1655.2,74.1z"/>
		<path class="st2" d="M1630.7,86.8c0,0.3-0.3,0.6-0.6,0.6s-0.6-0.3-0.6-0.6c0-0.3,0.3-0.6,0.6-0.6S1630.7,86.5,1630.7,86.8z"/>
		<path class="st2" d="M1630.1,87.5c-0.4,0-0.7-0.3-0.7-0.7c0-0.4,0.3-0.7,0.7-0.7c0.4,0,0.7,0.3,0.7,0.7
			C1630.8,87.2,1630.5,87.5,1630.1,87.5z M1630.1,86.3c-0.3,0-0.5,0.2-0.5,0.5c0,0.3,0.2,0.5,0.5,0.5c0.3,0,0.5-0.2,0.5-0.5
			C1630.6,86.6,1630.4,86.3,1630.1,86.3z"/>
		<path class="st2" d="M1666.9,61c0,0.3-0.3,0.6-0.6,0.6s-0.6-0.3-0.6-0.6c0-0.3,0.3-0.6,0.6-0.6S1666.9,60.7,1666.9,61z"/>
		<path class="st2" d="M1666.4,61.7c-0.4,0-0.7-0.3-0.7-0.7c0-0.4,0.3-0.7,0.7-0.7s0.7,0.3,0.7,0.7
			C1667,61.4,1666.7,61.7,1666.4,61.7z M1666.4,60.5c-0.3,0-0.5,0.2-0.5,0.5s0.2,0.5,0.5,0.5s0.5-0.2,0.5-0.5
			S1666.6,60.5,1666.4,60.5z"/>
		<path class="st2" d="M1647.5,81.4c0,0.3-0.3,0.6-0.6,0.6s-0.6-0.3-0.6-0.6c0-0.3,0.3-0.6,0.6-0.6S1647.5,81,1647.5,81.4z"/>
		<path class="st2" d="M1646.9,82c-0.4,0-0.7-0.3-0.7-0.7c0-0.4,0.3-0.7,0.7-0.7s0.7,0.3,0.7,0.7C1647.6,81.7,1647.3,82,1646.9,82z
			 M1646.9,80.9c-0.3,0-0.5,0.2-0.5,0.5c0,0.3,0.2,0.5,0.5,0.5s0.5-0.2,0.5-0.5C1647.4,81.1,1647.2,80.9,1646.9,80.9z"/>
		<path class="st2" d="M1620,88.1c0,0.3-0.3,0.6-0.6,0.6s-0.6-0.3-0.6-0.6c0-0.3,0.3-0.6,0.6-0.6S1620,87.8,1620,88.1z"/>
		<path class="st2" d="M1619.4,88.8c-0.4,0-0.7-0.3-0.7-0.7c0-0.4,0.3-0.7,0.7-0.7c0.4,0,0.7,0.3,0.7,0.7
			C1620.1,88.5,1619.8,88.8,1619.4,88.8z M1619.4,87.6c-0.3,0-0.5,0.2-0.5,0.5s0.2,0.5,0.5,0.5c0.3,0,0.5-0.2,0.5-0.5
			S1619.7,87.6,1619.4,87.6z"/>
		<path class="st2" d="M1661.4,70.3c0,0.3-0.3,0.6-0.6,0.6s-0.6-0.3-0.6-0.6c0-0.3,0.3-0.6,0.6-0.6S1661.4,70,1661.4,70.3z"/>
		<path class="st2" d="M1660.9,71c-0.4,0-0.7-0.3-0.7-0.7c0-0.4,0.3-0.7,0.7-0.7c0.4,0,0.7,0.3,0.7,0.7
			C1661.5,70.7,1661.2,71,1660.9,71z M1660.9,69.9c-0.3,0-0.5,0.2-0.5,0.5c0,0.3,0.2,0.5,0.5,0.5c0.3,0,0.5-0.2,0.5-0.5
			C1661.3,70.1,1661.1,69.9,1660.9,69.9z"/>
		<path class="st2" d="M1637.8,86.3c0,0.3-0.3,0.6-0.6,0.6c-0.3,0-0.6-0.3-0.6-0.6c0-0.3,0.3-0.6,0.6-0.6
			C1637.5,85.7,1637.8,86,1637.8,86.3z"/>
		<path class="st2" d="M1637.2,87c-0.4,0-0.7-0.3-0.7-0.7c0-0.4,0.3-0.7,0.7-0.7s0.7,0.3,0.7,0.7C1637.9,86.7,1637.6,87,1637.2,87z
			 M1637.2,85.8c-0.3,0-0.5,0.2-0.5,0.5c0,0.3,0.2,0.5,0.5,0.5c0.3,0,0.5-0.2,0.5-0.5C1637.7,86,1637.5,85.8,1637.2,85.8z"/>
		<path class="st2" d="M1654,78.4c0,0.3-0.3,0.6-0.6,0.6s-0.6-0.3-0.6-0.6c0-0.3,0.3-0.6,0.6-0.6S1654,78.1,1654,78.4z"/>
		<path class="st2" d="M1653.4,79.1c-0.4,0-0.7-0.3-0.7-0.7c0-0.4,0.3-0.7,0.7-0.7c0.4,0,0.7,0.3,0.7,0.7
			C1654.1,78.8,1653.8,79.1,1653.4,79.1z M1653.4,77.9c-0.3,0-0.5,0.2-0.5,0.5c0,0.3,0.2,0.5,0.5,0.5c0.3,0,0.5-0.2,0.5-0.5
			C1653.9,78.1,1653.7,77.9,1653.4,77.9z"/>
		<path class="st2" d="M1627.1,89.1c0,0.3-0.3,0.6-0.6,0.6s-0.6-0.3-0.6-0.6c0-0.3,0.3-0.6,0.6-0.6S1627.1,88.8,1627.1,89.1z"/>
		<path class="st2" d="M1626.5,89.8c-0.4,0-0.7-0.3-0.7-0.7s0.3-0.7,0.7-0.7s0.7,0.3,0.7,0.7S1626.9,89.8,1626.5,89.8z M1626.5,88.6
			c-0.3,0-0.5,0.2-0.5,0.5c0,0.3,0.2,0.5,0.5,0.5c0.3,0,0.5-0.2,0.5-0.5C1627,88.8,1626.8,88.6,1626.5,88.6z"/>
		<path class="st2" d="M1666.5,65.3c0,0.3-0.3,0.6-0.6,0.6s-0.6-0.3-0.6-0.6c0-0.3,0.3-0.6,0.6-0.6S1666.5,64.9,1666.5,65.3z"/>
		<path class="st2" d="M1666,65.9c-0.4,0-0.7-0.3-0.7-0.7c0-0.4,0.3-0.7,0.7-0.7c0.4,0,0.7,0.3,0.7,0.7
			C1666.6,65.6,1666.3,65.9,1666,65.9z M1666,64.8c-0.3,0-0.5,0.2-0.5,0.5c0,0.3,0.2,0.5,0.5,0.5c0.3,0,0.5-0.2,0.5-0.5
			C1666.4,65,1666.2,64.8,1666,64.8z"/>
		<path class="st2" d="M1644.8,84.7c0,0.3-0.3,0.6-0.6,0.6s-0.6-0.3-0.6-0.6s0.3-0.6,0.6-0.6S1644.8,84.4,1644.8,84.7z"/>
		<path class="st2" d="M1644.3,85.4c-0.4,0-0.7-0.3-0.7-0.7s0.3-0.7,0.7-0.7c0.4,0,0.7,0.3,0.7,0.7S1644.6,85.4,1644.3,85.4z
			 M1644.3,84.2c-0.3,0-0.5,0.2-0.5,0.5s0.2,0.5,0.5,0.5c0.3,0,0.5-0.2,0.5-0.5S1644.5,84.2,1644.3,84.2z"/>
		<path class="st2" d="M1615.9,89.5c0,0.3-0.3,0.6-0.6,0.6s-0.6-0.3-0.6-0.6c0-0.3,0.3-0.6,0.6-0.6S1615.9,89.2,1615.9,89.5z"/>
		<path class="st2" d="M1615.4,90.2c-0.4,0-0.7-0.3-0.7-0.7c0-0.4,0.3-0.7,0.7-0.7s0.7,0.3,0.7,0.7
			C1616,89.9,1615.7,90.2,1615.4,90.2z M1615.4,89.1c-0.3,0-0.5,0.2-0.5,0.5c0,0.3,0.2,0.5,0.5,0.5c0.3,0,0.5-0.2,0.5-0.5
			C1615.8,89.3,1615.6,89.1,1615.4,89.1z"/>
		<path class="st2" d="M1660.1,74.4c0,0.3-0.3,0.6-0.6,0.6s-0.6-0.3-0.6-0.6c0-0.3,0.3-0.6,0.6-0.6S1660.1,74.1,1660.1,74.4z"/>
		<path class="st2" d="M1659.5,75.1c-0.4,0-0.7-0.3-0.7-0.7c0-0.4,0.3-0.7,0.7-0.7s0.7,0.3,0.7,0.7
			C1660.2,74.8,1659.9,75.1,1659.5,75.1z M1659.5,73.9c-0.3,0-0.5,0.2-0.5,0.5c0,0.3,0.2,0.5,0.5,0.5s0.5-0.2,0.5-0.5
			C1660,74.1,1659.8,73.9,1659.5,73.9z"/>
		<path class="st2" d="M1634.4,89c0,0.3-0.3,0.6-0.6,0.6s-0.6-0.3-0.6-0.6c0-0.3,0.3-0.6,0.6-0.6S1634.4,88.7,1634.4,89z"/>
		<path class="st2" d="M1633.9,89.7c-0.4,0-0.7-0.3-0.7-0.7c0-0.4,0.3-0.7,0.7-0.7s0.7,0.3,0.7,0.7
			C1634.5,89.4,1634.2,89.7,1633.9,89.7z M1633.9,88.5c-0.3,0-0.5,0.2-0.5,0.5c0,0.3,0.2,0.5,0.5,0.5c0.3,0,0.5-0.2,0.5-0.5
			C1634.3,88.7,1634.1,88.5,1633.9,88.5z"/>
		<path class="st2" d="M1651.7,82.1c0,0.3-0.3,0.6-0.6,0.6s-0.6-0.3-0.6-0.6c0-0.3,0.3-0.6,0.6-0.6S1651.7,81.8,1651.7,82.1z"/>
		<path class="st2" d="M1651.2,82.8c-0.4,0-0.7-0.3-0.7-0.7c0-0.4,0.3-0.7,0.7-0.7s0.7,0.3,0.7,0.7
			C1651.8,82.5,1651.5,82.8,1651.2,82.8z M1651.2,81.6c-0.3,0-0.5,0.2-0.5,0.5c0,0.3,0.2,0.5,0.5,0.5c0.3,0,0.5-0.2,0.5-0.5
			C1651.6,81.8,1651.4,81.6,1651.2,81.6z"/>
		<path class="st2" d="M1623.2,91c0,0.3-0.3,0.6-0.6,0.6s-0.6-0.3-0.6-0.6c0-0.3,0.3-0.6,0.6-0.6S1623.2,90.7,1623.2,91z"/>
		<path class="st2" d="M1622.6,91.7c-0.4,0-0.7-0.3-0.7-0.7c0-0.4,0.3-0.7,0.7-0.7s0.7,0.3,0.7,0.7
			C1623.3,91.4,1623,91.7,1622.6,91.7z M1622.6,90.5c-0.3,0-0.5,0.2-0.5,0.5c0,0.3,0.2,0.5,0.5,0.5c0.3,0,0.5-0.2,0.5-0.5
			C1623.1,90.7,1622.9,90.5,1622.6,90.5z"/>
		<path class="st2" d="M1665.7,69.5c0,0.3-0.3,0.6-0.6,0.6s-0.6-0.3-0.6-0.6c0-0.3,0.3-0.6,0.6-0.6S1665.7,69.2,1665.7,69.5z"/>
		<path class="st2" d="M1665.1,70.2c-0.4,0-0.7-0.3-0.7-0.7c0-0.4,0.3-0.7,0.7-0.7s0.7,0.3,0.7,0.7
			C1665.8,69.9,1665.5,70.2,1665.1,70.2z M1665.1,69c-0.3,0-0.5,0.2-0.5,0.5c0,0.3,0.2,0.5,0.5,0.5s0.5-0.2,0.5-0.5
			C1665.6,69.3,1665.4,69,1665.1,69z"/>
		<path class="st2" d="M1641.8,87.9c0,0.3-0.3,0.6-0.6,0.6c-0.3,0-0.6-0.3-0.6-0.6c0-0.3,0.3-0.6,0.6-0.6
			C1641.6,87.3,1641.8,87.5,1641.8,87.9z"/>
		<path class="st2" d="M1641.2,88.6c-0.4,0-0.7-0.3-0.7-0.7c0-0.4,0.3-0.7,0.7-0.7s0.7,0.3,0.7,0.7
			C1641.9,88.2,1641.6,88.6,1641.2,88.6z M1641.2,87.4c-0.3,0-0.5,0.2-0.5,0.5c0,0.3,0.2,0.5,0.5,0.5s0.5-0.2,0.5-0.5
			C1641.7,87.6,1641.5,87.4,1641.2,87.4z"/>
		<path class="st2" d="M1658.3,78.4c0,0.3-0.3,0.6-0.6,0.6s-0.6-0.3-0.6-0.6c0-0.3,0.3-0.6,0.6-0.6S1658.3,78.1,1658.3,78.4z"/>
		<path class="st2" d="M1657.7,79.1c-0.4,0-0.7-0.3-0.7-0.7c0-0.4,0.3-0.7,0.7-0.7s0.7,0.3,0.7,0.7
			C1658.4,78.8,1658.1,79.1,1657.7,79.1z M1657.7,77.9c-0.3,0-0.5,0.2-0.5,0.5c0,0.3,0.2,0.5,0.5,0.5s0.5-0.2,0.5-0.5
			C1658.2,78.2,1658,77.9,1657.7,77.9z"/>
		<path class="st2" d="M1630.8,91.4c0,0.3-0.3,0.6-0.6,0.6c-0.3,0-0.6-0.3-0.6-0.6c0-0.3,0.3-0.6,0.6-0.6
			C1630.5,90.9,1630.8,91.1,1630.8,91.4z"/>
		<path class="st2" d="M1630.2,92.1c-0.4,0-0.7-0.3-0.7-0.7s0.3-0.7,0.7-0.7s0.7,0.3,0.7,0.7S1630.6,92.1,1630.2,92.1z M1630.2,91
			c-0.3,0-0.5,0.2-0.5,0.5c0,0.3,0.2,0.5,0.5,0.5c0.3,0,0.5-0.2,0.5-0.5C1630.7,91.2,1630.4,91,1630.2,91z"/>
		<path class="st2" d="M1670.6,63.8c0,0.3-0.3,0.6-0.6,0.6c-0.3,0-0.6-0.3-0.6-0.6c0-0.3,0.3-0.6,0.6-0.6
			C1670.4,63.2,1670.6,63.4,1670.6,63.8z"/>
		<path class="st2" d="M1670,64.5c-0.4,0-0.7-0.3-0.7-0.7s0.3-0.7,0.7-0.7s0.7,0.3,0.7,0.7S1670.4,64.5,1670,64.5z M1670,63.3
			c-0.3,0-0.5,0.2-0.5,0.5c0,0.3,0.2,0.5,0.5,0.5c0.3,0,0.5-0.2,0.5-0.5C1670.5,63.5,1670.3,63.3,1670,63.3z"/>
		<path class="st2" d="M1649.1,85.6c0,0.3-0.3,0.6-0.6,0.6s-0.6-0.3-0.6-0.6c0-0.3,0.3-0.6,0.6-0.6S1649.1,85.3,1649.1,85.6z"/>
		<path class="st2" d="M1648.5,86.3c-0.4,0-0.7-0.3-0.7-0.7s0.3-0.7,0.7-0.7s0.7,0.3,0.7,0.7S1648.9,86.3,1648.5,86.3z M1648.5,85.1
			c-0.3,0-0.5,0.2-0.5,0.5s0.2,0.5,0.5,0.5s0.5-0.2,0.5-0.5S1648.8,85.1,1648.5,85.1z"/>
		<path class="st2" d="M1619.1,92.6c0,0.3-0.3,0.6-0.6,0.6s-0.6-0.3-0.6-0.6c0-0.3,0.3-0.6,0.6-0.6S1619.1,92.3,1619.1,92.6z"/>
		<path class="st2" d="M1618.5,93.3c-0.4,0-0.7-0.3-0.7-0.7c0-0.4,0.3-0.7,0.7-0.7c0.4,0,0.7,0.3,0.7,0.7
			C1619.2,93,1618.9,93.3,1618.5,93.3z M1618.5,92.1c-0.3,0-0.5,0.2-0.5,0.5c0,0.3,0.2,0.5,0.5,0.5c0.3,0,0.5-0.2,0.5-0.5
			C1619,92.3,1618.7,92.1,1618.5,92.1z"/>
		<path class="st2" d="M1664.4,73.8c0,0.3-0.3,0.6-0.6,0.6c-0.3,0-0.6-0.3-0.6-0.6c0-0.3,0.3-0.6,0.6-0.6
			C1664.2,73.2,1664.4,73.5,1664.4,73.8z"/>
		<path class="st2" d="M1663.8,74.5c-0.4,0-0.7-0.3-0.7-0.7s0.3-0.7,0.7-0.7s0.7,0.3,0.7,0.7S1664.2,74.5,1663.8,74.5z M1663.8,73.3
			c-0.3,0-0.5,0.2-0.5,0.5c0,0.3,0.2,0.5,0.5,0.5c0.3,0,0.5-0.2,0.5-0.5C1664.3,73.5,1664.1,73.3,1663.8,73.3z"/>
		<path class="st2" d="M1638.4,90.8c0,0.3-0.3,0.6-0.6,0.6c-0.3,0-0.6-0.3-0.6-0.6c0-0.3,0.3-0.6,0.6-0.6
			C1638.2,90.2,1638.4,90.4,1638.4,90.8z"/>
		<path class="st2" d="M1637.8,91.5c-0.4,0-0.7-0.3-0.7-0.7c0-0.4,0.3-0.7,0.7-0.7s0.7,0.3,0.7,0.7
			C1638.5,91.1,1638.2,91.5,1637.8,91.5z M1637.8,90.3c-0.3,0-0.5,0.2-0.5,0.5c0,0.3,0.2,0.5,0.5,0.5c0.3,0,0.5-0.2,0.5-0.5
			C1638.3,90.5,1638.1,90.3,1637.8,90.3z"/>
		<path class="st2" d="M1656.1,82.3c0,0.3-0.3,0.6-0.6,0.6s-0.6-0.3-0.6-0.6c0-0.3,0.3-0.6,0.6-0.6S1656.1,82,1656.1,82.3z"/>
		<path class="st2" d="M1655.5,83c-0.4,0-0.7-0.3-0.7-0.7c0-0.4,0.3-0.7,0.7-0.7s0.7,0.3,0.7,0.7C1656.2,82.7,1655.9,83,1655.5,83z
			 M1655.5,81.8c-0.3,0-0.5,0.2-0.5,0.5c0,0.3,0.2,0.5,0.5,0.5s0.5-0.2,0.5-0.5C1656,82.1,1655.8,81.8,1655.5,81.8z"/>
		<path class="st2" d="M1626.8,93.5c0,0.3-0.3,0.6-0.6,0.6c-0.3,0-0.6-0.3-0.6-0.6c0-0.3,0.3-0.6,0.6-0.6
			C1626.5,93,1626.8,93.2,1626.8,93.5z"/>
		<path class="st2" d="M1626.2,94.2c-0.4,0-0.7-0.3-0.7-0.7c0-0.4,0.3-0.7,0.7-0.7c0.4,0,0.7,0.3,0.7,0.7
			C1626.9,93.9,1626.6,94.2,1626.2,94.2z M1626.2,93.1c-0.3,0-0.5,0.2-0.5,0.5c0,0.3,0.2,0.5,0.5,0.5c0.3,0,0.5-0.2,0.5-0.5
			C1626.7,93.3,1626.5,93.1,1626.2,93.1z"/>
		<path class="st2" d="M1669.9,68.2c0,0.3-0.3,0.6-0.6,0.6c-0.3,0-0.6-0.3-0.6-0.6c0-0.3,0.3-0.6,0.6-0.6
			C1669.6,67.6,1669.9,67.9,1669.9,68.2z"/>
		<path class="st2" d="M1669.3,68.9c-0.4,0-0.7-0.3-0.7-0.7c0-0.4,0.3-0.7,0.7-0.7s0.7,0.3,0.7,0.7
			C1670,68.6,1669.7,68.9,1669.3,68.9z M1669.3,67.7c-0.3,0-0.5,0.2-0.5,0.5c0,0.3,0.2,0.5,0.5,0.5s0.5-0.2,0.5-0.5
			C1669.8,67.9,1669.6,67.7,1669.3,67.7z"/>
		<path class="st2" d="M1646.1,89c0,0.3-0.3,0.6-0.6,0.6c-0.3,0-0.6-0.3-0.6-0.6c0-0.3,0.3-0.6,0.6-0.6
			C1645.8,88.4,1646.1,88.7,1646.1,89z"/>
		<path class="st2" d="M1645.5,89.7c-0.4,0-0.7-0.3-0.7-0.7c0-0.4,0.3-0.7,0.7-0.7s0.7,0.3,0.7,0.7
			C1646.2,89.4,1645.9,89.7,1645.5,89.7z M1645.5,88.5c-0.3,0-0.5,0.2-0.5,0.5c0,0.3,0.2,0.5,0.5,0.5s0.5-0.2,0.5-0.5
			C1646,88.7,1645.7,88.5,1645.5,88.5z"/>
		<path class="st2" d="M1614.7,93.8c0,0.3-0.3,0.6-0.6,0.6c-0.3,0-0.6-0.3-0.6-0.6s0.3-0.6,0.6-0.6
			C1614.4,93.2,1614.7,93.5,1614.7,93.8z"/>
		<path class="st2" d="M1662.7,78c0,0.3-0.3,0.6-0.6,0.6s-0.6-0.3-0.6-0.6c0-0.3,0.3-0.6,0.6-0.6S1662.7,77.7,1662.7,78z"/>
		<path class="st2" d="M1662.1,78.7c-0.4,0-0.7-0.3-0.7-0.7s0.3-0.7,0.7-0.7s0.7,0.3,0.7,0.7S1662.5,78.7,1662.1,78.7z M1662.1,77.5
			c-0.3,0-0.5,0.2-0.5,0.5c0,0.3,0.2,0.5,0.5,0.5s0.5-0.2,0.5-0.5C1662.6,77.7,1662.4,77.5,1662.1,77.5z"/>
		<path class="st2" d="M1634.7,93.4c0,0.3-0.3,0.6-0.6,0.6c-0.3,0-0.6-0.3-0.6-0.6c0-0.3,0.3-0.6,0.6-0.6
			C1634.4,92.8,1634.7,93.1,1634.7,93.4z"/>
		<path class="st2" d="M1634.1,94.1c-0.4,0-0.7-0.3-0.7-0.7c0-0.4,0.3-0.7,0.7-0.7s0.7,0.3,0.7,0.7
			C1634.8,93.8,1634.5,94.1,1634.1,94.1z M1634.1,92.9c-0.3,0-0.5,0.2-0.5,0.5c0,0.3,0.2,0.5,0.5,0.5c0.3,0,0.5-0.2,0.5-0.5
			C1634.6,93.1,1634.4,92.9,1634.1,92.9z"/>
		<path class="st2" d="M1674.6,61.8c0,0.3-0.3,0.6-0.6,0.6c-0.3,0-0.6-0.3-0.6-0.6c0-0.3,0.3-0.6,0.6-0.6
			C1674.3,61.2,1674.6,61.5,1674.6,61.8z"/>
		<path class="st2" d="M1674,62.5c-0.4,0-0.7-0.3-0.7-0.7c0-0.4,0.3-0.7,0.7-0.7s0.7,0.3,0.7,0.7C1674.7,62.2,1674.4,62.5,1674,62.5
			z M1674,61.3c-0.3,0-0.5,0.2-0.5,0.5c0,0.3,0.2,0.5,0.5,0.5c0.3,0,0.5-0.2,0.5-0.5C1674.5,61.5,1674.3,61.3,1674,61.3z"/>
		<path class="st2" d="M1653.5,86.1c0,0.3-0.3,0.6-0.6,0.6c-0.3,0-0.6-0.3-0.6-0.6c0-0.3,0.3-0.6,0.6-0.6
			C1653.2,85.5,1653.5,85.8,1653.5,86.1z"/>
		<path class="st2" d="M1652.9,86.8c-0.4,0-0.7-0.3-0.7-0.7c0-0.4,0.3-0.7,0.7-0.7s0.7,0.3,0.7,0.7
			C1653.6,86.5,1653.3,86.8,1652.9,86.8z M1652.9,85.6c-0.3,0-0.5,0.2-0.5,0.5c0,0.3,0.2,0.5,0.5,0.5s0.5-0.2,0.5-0.5
			C1653.4,85.8,1653.2,85.6,1652.9,85.6z"/>
		<path class="st2" d="M1622.5,95.3c0,0.3-0.3,0.6-0.6,0.6s-0.6-0.3-0.6-0.6c0-0.3,0.3-0.6,0.6-0.6S1622.5,95,1622.5,95.3z"/>
		<path class="st2" d="M1622,96c-0.4,0-0.7-0.3-0.7-0.7c0-0.4,0.3-0.7,0.7-0.7s0.7,0.3,0.7,0.7C1622.6,95.7,1622.3,96,1622,96z
			 M1622,94.8c-0.3,0-0.5,0.2-0.5,0.5c0,0.3,0.2,0.5,0.5,0.5c0.3,0,0.5-0.2,0.5-0.5C1622.4,95,1622.2,94.8,1622,94.8z"/>
		<path class="st2" d="M1668.7,72.7c0,0.3-0.3,0.6-0.6,0.6s-0.6-0.3-0.6-0.6c0-0.3,0.3-0.6,0.6-0.6S1668.7,72.3,1668.7,72.7z"/>
		<path class="st2" d="M1668.1,73.3c-0.4,0-0.7-0.3-0.7-0.7c0-0.4,0.3-0.7,0.7-0.7s0.7,0.3,0.7,0.7
			C1668.8,73,1668.5,73.3,1668.1,73.3z M1668.1,72.2c-0.3,0-0.5,0.2-0.5,0.5c0,0.3,0.2,0.5,0.5,0.5s0.5-0.2,0.5-0.5
			C1668.6,72.4,1668.4,72.2,1668.1,72.2z"/>
		<path class="st2" d="M1642.7,92.1c0,0.3-0.3,0.6-0.6,0.6s-0.6-0.3-0.6-0.6c0-0.3,0.3-0.6,0.6-0.6S1642.7,91.8,1642.7,92.1z"/>
		<path class="st2" d="M1642.1,92.8c-0.4,0-0.7-0.3-0.7-0.7c0-0.4,0.3-0.7,0.7-0.7s0.7,0.3,0.7,0.7
			C1642.7,92.5,1642.4,92.8,1642.1,92.8z M1642.1,91.6c-0.3,0-0.5,0.2-0.5,0.5c0,0.3,0.2,0.5,0.5,0.5s0.5-0.2,0.5-0.5
			C1642.6,91.8,1642.3,91.6,1642.1,91.6z"/>
		<path class="st2" d="M1660.5,82.1c0,0.3-0.3,0.6-0.6,0.6c-0.3,0-0.6-0.3-0.6-0.6c0-0.3,0.3-0.6,0.6-0.6
			C1660.3,81.5,1660.5,81.8,1660.5,82.1z"/>
		<path class="st2" d="M1659.9,82.8c-0.4,0-0.7-0.3-0.7-0.7s0.3-0.7,0.7-0.7c0.4,0,0.7,0.3,0.7,0.7S1660.3,82.8,1659.9,82.8z
			 M1659.9,81.6c-0.3,0-0.5,0.2-0.5,0.5s0.2,0.5,0.5,0.5c0.3,0,0.5-0.2,0.5-0.5S1660.2,81.6,1659.9,81.6z"/>
		<path class="st2" d="M1630.7,95.7c0,0.3-0.3,0.6-0.6,0.6s-0.6-0.3-0.6-0.6c0-0.3,0.3-0.6,0.6-0.6S1630.7,95.4,1630.7,95.7z"/>
		<path class="st2" d="M1630.1,96.4c-0.4,0-0.7-0.3-0.7-0.7c0-0.4,0.3-0.7,0.7-0.7s0.7,0.3,0.7,0.7
			C1630.8,96.1,1630.5,96.4,1630.1,96.4z M1630.1,95.2c-0.3,0-0.5,0.2-0.5,0.5c0,0.3,0.2,0.5,0.5,0.5s0.5-0.2,0.5-0.5
			C1630.6,95.4,1630.3,95.2,1630.1,95.2z"/>
		<path class="st2" d="M1674,66.4c0,0.3-0.3,0.6-0.6,0.6c-0.3,0-0.6-0.3-0.6-0.6c0-0.3,0.3-0.6,0.6-0.6
			C1673.7,65.9,1674,66.1,1674,66.4z"/>
		<path class="st2" d="M1673.4,67.1c-0.4,0-0.7-0.3-0.7-0.7c0-0.4,0.3-0.7,0.7-0.7s0.7,0.3,0.7,0.7
			C1674.1,66.8,1673.7,67.1,1673.4,67.1z M1673.4,66c-0.3,0-0.5,0.2-0.5,0.5c0,0.3,0.2,0.5,0.5,0.5s0.5-0.2,0.5-0.5
			C1673.9,66.2,1673.6,66,1673.4,66z"/>
		<path class="st2" d="M1650.5,89.7c0,0.3-0.3,0.6-0.6,0.6c-0.3,0-0.6-0.3-0.6-0.6c0-0.3,0.3-0.6,0.6-0.6
			C1650.2,89.1,1650.5,89.3,1650.5,89.7z"/>
		<path class="st2" d="M1649.9,90.3c-0.4,0-0.7-0.3-0.7-0.7c0-0.4,0.3-0.7,0.7-0.7s0.7,0.3,0.7,0.7
			C1650.6,90,1650.3,90.3,1649.9,90.3z M1649.9,89.2c-0.3,0-0.5,0.2-0.5,0.5c0,0.3,0.2,0.5,0.5,0.5c0.3,0,0.5-0.2,0.5-0.5
			C1650.4,89.4,1650.1,89.2,1649.9,89.2z"/>
		<path class="st2" d="M1618.1,96.7c0,0.3-0.3,0.6-0.6,0.6c-0.3,0-0.6-0.3-0.6-0.6c0-0.3,0.3-0.6,0.6-0.6
			C1617.8,96.1,1618.1,96.4,1618.1,96.7z"/>
		<path class="st2" d="M1617.5,97.4c-0.4,0-0.7-0.3-0.7-0.7c0-0.4,0.3-0.7,0.7-0.7s0.7,0.3,0.7,0.7
			C1618.2,97.1,1617.8,97.4,1617.5,97.4z M1617.5,96.2c-0.3,0-0.5,0.2-0.5,0.5c0,0.3,0.2,0.5,0.5,0.5c0.3,0,0.5-0.2,0.5-0.5
			C1618,96.4,1617.7,96.2,1617.5,96.2z"/>
		<path class="st2" d="M1667.1,77.1c0,0.3-0.3,0.6-0.6,0.6c-0.3,0-0.6-0.3-0.6-0.6s0.3-0.6,0.6-0.6
			C1666.8,76.5,1667.1,76.7,1667.1,77.1z"/>
		<path class="st2" d="M1666.5,77.8c-0.4,0-0.7-0.3-0.7-0.7s0.3-0.7,0.7-0.7s0.7,0.3,0.7,0.7S1666.8,77.8,1666.5,77.8z M1666.5,76.6
			c-0.3,0-0.5,0.2-0.5,0.5c0,0.3,0.2,0.5,0.5,0.5s0.5-0.2,0.5-0.5C1667,76.8,1666.7,76.6,1666.5,76.6z"/>
		<path class="st2" d="M1638.9,95c0,0.3-0.3,0.6-0.6,0.6s-0.6-0.3-0.6-0.6s0.3-0.6,0.6-0.6S1638.9,94.6,1638.9,95z"/>
		<path class="st2" d="M1638.3,95.6c-0.4,0-0.7-0.3-0.7-0.7s0.3-0.7,0.7-0.7s0.7,0.3,0.7,0.7S1638.7,95.6,1638.3,95.6z M1638.3,94.5
			c-0.3,0-0.5,0.2-0.5,0.5c0,0.3,0.2,0.5,0.5,0.5s0.5-0.2,0.5-0.5C1638.8,94.7,1638.6,94.5,1638.3,94.5z"/>
		<path class="st2" d="M1658,86.1c0,0.3-0.3,0.6-0.6,0.6s-0.6-0.3-0.6-0.6c0-0.3,0.3-0.6,0.6-0.6S1658,85.8,1658,86.1z"/>
		<path class="st2" d="M1657.4,86.8c-0.4,0-0.7-0.3-0.7-0.7c0-0.4,0.3-0.7,0.7-0.7s0.7,0.3,0.7,0.7
			C1658.1,86.5,1657.7,86.8,1657.4,86.8z M1657.4,85.6c-0.3,0-0.5,0.2-0.5,0.5c0,0.3,0.2,0.5,0.5,0.5c0.3,0,0.5-0.2,0.5-0.5
			C1657.9,85.8,1657.6,85.6,1657.4,85.6z"/>
		<path class="st2" d="M1626.3,97.7c0,0.3-0.3,0.6-0.6,0.6s-0.6-0.3-0.6-0.6c0-0.3,0.3-0.6,0.6-0.6S1626.3,97.4,1626.3,97.7z"/>
		<path class="st2" d="M1625.8,98.4c-0.4,0-0.7-0.3-0.7-0.7c0-0.4,0.3-0.7,0.7-0.7s0.7,0.3,0.7,0.7
			C1626.4,98.1,1626.1,98.4,1625.8,98.4z M1625.8,97.2c-0.3,0-0.5,0.2-0.5,0.5c0,0.3,0.2,0.5,0.5,0.5s0.5-0.2,0.5-0.5
			C1626.2,97.4,1626,97.2,1625.8,97.2z"/>
		<path class="st2" d="M1672.9,71.1c0,0.3-0.3,0.6-0.6,0.6s-0.6-0.3-0.6-0.6c0-0.3,0.3-0.6,0.6-0.6S1672.9,70.8,1672.9,71.1z"/>
		<path class="st2" d="M1672.3,71.8c-0.4,0-0.7-0.3-0.7-0.7c0-0.4,0.3-0.7,0.7-0.7s0.7,0.3,0.7,0.7
			C1673,71.5,1672.7,71.8,1672.3,71.8z M1672.3,70.6c-0.3,0-0.5,0.2-0.5,0.5c0,0.3,0.2,0.5,0.5,0.5s0.5-0.2,0.5-0.5
			C1672.8,70.8,1672.6,70.6,1672.3,70.6z"/>
		<path class="st2" d="M1647.1,93c0,0.3-0.3,0.6-0.6,0.6s-0.6-0.3-0.6-0.6c0-0.3,0.3-0.6,0.6-0.6S1647.1,92.7,1647.1,93z"/>
		<path class="st2" d="M1646.5,93.7c-0.4,0-0.7-0.3-0.7-0.7c0-0.4,0.3-0.7,0.7-0.7s0.7,0.3,0.7,0.7
			C1647.1,93.4,1646.8,93.7,1646.5,93.7z M1646.5,92.5c-0.3,0-0.5,0.2-0.5,0.5c0,0.3,0.2,0.5,0.5,0.5c0.3,0,0.5-0.2,0.5-0.5
			C1647,92.7,1646.7,92.5,1646.5,92.5z"/>
		<path class="st2" d="M1665,81.4c0,0.3-0.3,0.6-0.6,0.6c-0.3,0-0.6-0.3-0.6-0.6c0-0.3,0.3-0.6,0.6-0.6
			C1664.7,80.8,1665,81.1,1665,81.4z"/>
		<path class="st2" d="M1664.4,82.1c-0.4,0-0.7-0.3-0.7-0.7c0-0.4,0.3-0.7,0.7-0.7c0.4,0,0.7,0.3,0.7,0.7
			C1665.1,81.8,1664.8,82.1,1664.4,82.1z M1664.4,80.9c-0.3,0-0.5,0.2-0.5,0.5c0,0.3,0.2,0.5,0.5,0.5c0.3,0,0.5-0.2,0.5-0.5
			C1664.9,81.1,1664.7,80.9,1664.4,80.9z"/>
	</g>
</g>
<g>
	<path class="st3" d="M1654.2,147.1c-1,5.4-6.3,9-11.7,8l-14.3-2.7c-5.4-1-9-6.3-8-11.7l5.1-27.5c1-5.4,6.3-9,11.7-8l14.3,2.7
		c5.4,1,9,6.3,8,11.7L1654.2,147.1z"/>
</g>
<g>
	<path class="st3" d="M1696.8,155.1c-1,5.4-6.3,9-11.7,8l-14.3-2.7c-5.4-1-9-6.3-8-11.7l5.1-27.5c1-5.4,6.3-9,11.7-8l14.3,2.7
		c5.4,1,9,6.3,8,11.7L1696.8,155.1z"/>
</g>
<g>
	<path class="st3" d="M1739.4,162.9c-1,5.4-6.3,9-11.7,8l-14.3-2.7c-5.4-1-9-6.3-8-11.7l5.1-27.5c1-5.4,6.3-9,11.7-8l14.3,2.7
		c5.4,1,9,6.3,8,11.7L1739.4,162.9z"/>
</g>
<g>
	<g>
		<path class="st0" d="M1347.3,220.8c19.9-11.7,40.7-23.7,63.8-27.8c11.6-2,22.8-1.3,34.2,1.4c5.8,1.4,11.6,2.8,17.6,3.3
			c6.1,0.4,12.1-0.6,18-2.2c12.3-3.2,24.5-7.1,36.8-10.6c12.3-3.6,24.6-7.1,36.9-10.7c6.2-1.8,12.3-3.6,18.5-5.4
			c6.1-1.8,12.3-3.3,18.3-5.3c2.1-0.7,4.1-1.7,5.3-3.6c1.7-2.4,1.8-5.4,2.2-8.2c1-6.5,2-13,2.9-19.5c4.3-28.6,8.6-57.2,12.9-85.7
			c-0.8,0.6-1.6,1.2-2.4,1.8c44.9,1.8,89.8,2.7,134.7,2.6c12.8,0,25.7-0.1,38.5-0.3c-0.8-0.8-1.7-1.7-2.5-2.5
			c4.4,46.4-4.9,92.5-16.8,137.1c-3.4,12.6-7,25.1-10.6,37.6c0.4-0.5,0.8-1,1.1-1.5c-27.5,13.3-55,26.6-82.6,39.8
			c-7.9,3.8-15.7,7.6-23.6,11.4c0.6-0.1,1.3-0.2,1.9-0.3c-43-16.5-84.6-36.7-124.1-60.4c-11.2-6.7-22.1-13.7-33-20.9
			c-0.8,1.4-1.7,2.9-2.5,4.3c13.6,8,27.6,15.3,41.7,22.3c7.1,3.5,14.2,6.9,21.3,10.4c6.7,3.2,13.1,5.7,20.6,4.4
			c8-1.3,15.2-5.9,21.8-10.3c1.3-0.9,1.7-2.7,0.5-3.9c-9-9-19.2-17-32.3-18.1c-13.7-1.1-27,4.7-39.2,10.3c1,1.3,2,2.6,3,3.9
			c7.4-6.7,15.9-12,25.1-15.8c2.3-0.9,2.4-3.9,0-4.8c-3.4-1.2-6.2-3.9-7.4-7.3c-0.4,0.9-0.8,1.9-1.1,2.8c11.5-5,23.5-10.2,36.1-10.9
			c12.5-0.7,24.2,4.6,36.1,7.9c23,6.3,46.6,9.9,69.5,16.2c12.9,3.5,25.6,8,37.5,14.1c0.2-1.5,0.4-3,0.6-4.6
			c-11.1,4.5-21.8,9.7-32.1,15.9c-4.5,2.7-9.8,7.7-15.4,6.4c-5.8-1.3-11.5-3.9-17.1-5.9c-23.2-8.3-46.3-17.1-69.1-26.5
			c-12.9-5.3-25.8-10.7-38.5-16.4c-0.2,1.5-0.4,3-0.6,4.6c10.7-2.2,21.3-5.2,31.6-8.9c4.4-1.6,9.6-3,13.3-5.9c4-3.2,4.6-8.3,5.4-13
			c3.7-22.5,7.5-45.1,11.2-67.6c2.1-12.8,4.2-25.6,6.4-38.3c-1,0.6-2.1,1.2-3.1,1.7c38.2,6.1,76.9,4.6,115.4,5.4
			c9.4,0.2,18.9,0.5,28.3,1.2c1.6,0.1,4,0,4.4,1.9c0.3,2-0.1,4.2-0.1,6.2c-0.2,4.4-0.3,8.7-0.5,13.1c-0.8,17.3-2,34.5-4.9,51.6
			c-3.3,19.1-8.7,37.8-17.8,54.9c0.7-0.4,1.4-0.8,2.2-1.2c-18.1-1.5-35.8-5.8-53.3-10.3c-18-4.6-35.9-9.2-53.9-13.7
			c-10.1-2.6-20.2-5.2-30.4-7.7c-0.4,1.6-0.9,3.2-1.3,4.8c26.2,4.4,52.3,8.7,78.5,13.1c3.1,0.5,4.5-4.3,1.3-4.8
			c-26.2-4.4-52.3-8.7-78.5-13.1c-3.1-0.5-4.5,4-1.3,4.8c18.3,4.7,36.6,9.3,54.8,14c17.9,4.6,35.7,9.5,53.8,13.3
			c10,2.1,20.1,3.8,30.3,4.6c0.8,0.1,1.8-0.5,2.2-1.2c17-31.8,21.3-68.2,23.1-103.6c0.2-4.6,0.4-9.3,0.6-13.9
			c0.1-2.1,0.1-4.1,0.2-6.2c0.1-2.1,0.4-4.3-0.1-6.3c-1.1-4.1-5-5-8.7-5.2c-5-0.4-10-0.6-15-0.8c-20-0.8-40.1-0.6-60.1-0.9
			c-22.6-0.3-45.3-1.2-67.7-4.7c-1.2-0.2-2.8,0.3-3.1,1.7c-3.6,21.8-7.2,43.6-10.9,65.5c-1.8,10.8-3.6,21.5-5.4,32.3
			c-0.8,4.9-1.2,10.2-2.7,15c-1.6,4.8-6.8,6-11.1,7.6c-11.2,4.2-22.7,7.5-34.4,9.9c-2,0.4-2.6,3.7-0.6,4.6
			c23.2,10.2,46.5,19.8,70.2,29c11.8,4.5,23.6,8.9,35.5,13.2c5.8,2.1,11.7,4.2,17.6,6.2c2.7,0.9,5.5,1.6,8.3,1
			c3-0.5,5.6-2.1,8.1-3.7c11.6-7.3,23.7-13.7,36.4-18.8c1.8-0.7,2.7-3.5,0.6-4.6c-21.8-11.3-45.8-16.8-69.6-21.9
			c-12.2-2.6-24.3-5.1-36.4-8.3c-12-3.2-23.9-8.6-36.4-8.7c-14.7-0.1-28.6,5.9-41.9,11.7c-0.9,0.4-1.5,1.9-1.1,2.8
			c1.9,5.2,5.7,9,10.9,10.8c0-1.6,0-3.2,0-4.8c-10.1,4.1-19.2,9.8-27.3,17.1c-2.3,2,0.6,5,3,3.9c11.2-5.1,23.3-10.4,35.9-9.7
			c12,0.8,21.4,8.6,29.5,16.7c0.2-1.3,0.3-2.6,0.5-3.9c-5.6,3.7-11.5,7.5-18.1,9.2c-3.2,0.8-6.5,1.1-9.7,0.4
			c-3.7-0.8-7-2.5-10.4-4.2c-13.4-6.5-26.9-13-40.1-20c-7.5-3.9-14.9-8-22.2-12.3c-2.8-1.6-5.2,2.5-2.5,4.3
			c25,16.7,50.9,32,77.6,45.8c13.5,7,27.2,13.5,41,19.7c6.8,3,13.7,6,20.6,8.8c3.5,1.4,7,2.8,10.5,4.2c1.6,0.6,3.2,1.3,4.9,1.9
			c1.6,0.6,3.7,1.9,5.4,1.3c1.7-0.6,3.4-1.6,5-2.4c2-0.9,3.9-1.9,5.9-2.8c3.7-1.8,7.3-3.5,11-5.3c7.3-3.5,14.7-7.1,22-10.6
			c14.7-7.1,29.4-14.2,44-21.2c3.7-1.8,7.3-3.5,11-5.3c1.8-0.9,3.7-1.8,5.5-2.7c2-1,2.8-1.5,3.5-3.7c2.2-7.8,4.5-15.5,6.7-23.3
			c4.3-15.3,8.3-30.7,11.8-46.2c6.8-30.6,11.2-62.1,9.7-93.5c-0.2-3.9-0.5-7.9-0.9-11.8c-0.1-1.3-1-2.5-2.5-2.5
			c-44.9,0.6-89.8,0.2-134.7-1c-12.8-0.4-25.6-0.8-38.5-1.3c-1,0-2.3,0.8-2.4,1.8c-3.8,25.3-7.6,50.5-11.4,75.8
			c-0.9,6.2-1.9,12.4-2.8,18.6c-0.5,3.2-1,6.4-1.4,9.5c-0.2,1.4-0.4,2.9-0.7,4.3c-0.2,1.3-0.3,2.9-1.3,3.9c-1.5,1.7-4.7,2-6.8,2.6
			c-3.2,0.9-6.4,1.9-9.7,2.8c-6.2,1.8-12.3,3.6-18.5,5.4c-24.3,7.1-48.7,14.1-73,21.2c-5.8,1.7-11.8,3.4-17.9,3.5
			c-5.9,0.1-11.7-1.2-17.5-2.6c-11.3-2.7-22.4-4.2-34-2.8c-25.5,3.2-48.4,16.3-70.2,29.1C1342,218.1,1344.6,222.4,1347.3,220.8
			L1347.3,220.8z"/>
	</g>
</g>
<rect x="1628.5" y="109.8" transform="matrix(0.9831 0.183 -0.183 0.9831 49.2243 -298.5446)" class="st4" width="27.4" height="15.3"/>
<rect x="1671" y="117.7" transform="matrix(0.9831 0.183 -0.183 0.9831 51.3936 -306.2018)" class="st4" width="27.4" height="15.3"/>
<rect x="1713.6" y="125.6" transform="matrix(0.9831 0.183 -0.183 0.9831 53.5635 -313.8612)" class="st4" width="27.4" height="15.3"/>
<g>
	<g>
		<path class="st5" d="M1679.1,79.4c0.4,0,0.8,0.2,1.1,0.4s0.6,0.5,0.8,0.8c0.2,0.3,0.3,0.7,0.3,1.1l-1.2-0.1c0-0.2-0.1-0.4-0.2-0.6
			c-0.1-0.2-0.2-0.3-0.4-0.4c-0.2-0.1-0.3-0.2-0.6-0.2c-0.3,0-0.5,0-0.7,0.1c-0.2,0.1-0.4,0.3-0.5,0.6c-0.1,0.3-0.2,0.7-0.3,1.1
			c-0.1,0.7,0,1.3,0.2,1.6c0.2,0.3,0.5,0.5,0.9,0.6c0.2,0,0.4,0,0.6-0.1c0.2-0.1,0.3-0.2,0.4-0.4c0.1-0.2,0.2-0.3,0.3-0.5l1.2,0.1
			c-0.1,0.3-0.2,0.5-0.3,0.8c-0.1,0.2-0.3,0.4-0.5,0.6c-0.2,0.2-0.5,0.3-0.7,0.4c-0.3,0.1-0.6,0.1-1.1,0.1c-0.5-0.1-1-0.2-1.4-0.5
			c-0.4-0.3-0.6-0.7-0.8-1.1s-0.2-1-0.2-1.6c0.1-0.6,0.2-1.1,0.5-1.5c0.3-0.4,0.6-0.7,1-0.9C1678.1,79.4,1678.5,79.3,1679.1,79.4z"
			/>
		<path class="st5" d="M1686.7,83.6l-2.5-0.2l-0.2,2.5l-1.2-0.1l0.6-5.8l1.2,0.1l-0.2,2.3l2.5,0.2l0.2-2.3l1.2,0.1l-0.6,5.8
			l-1.2-0.1L1686.7,83.6z"/>
		<path class="st5" d="M1689.3,86.3l2.6-5.6l1.2,0.1l1.5,6l-1.2-0.1l-0.3-1.4l-2.1-0.2l-0.6,1.3L1689.3,86.3z M1691.4,84.1l1.5,0.2
			l-0.5-2.4L1691.4,84.1z"/>
		<path class="st5" d="M1696.9,81.2l1.2,0.1l-0.5,4.8l2.5,0.2l-0.1,1l-3.7-0.4L1696.9,81.2z"/>
		<path class="st5" d="M1702.3,81.7l1.2,0.1l-0.5,4.8l2.5,0.2l-0.1,1l-3.7-0.4L1702.3,81.7z"/>
		<path class="st5" d="M1707.2,88.1l0.6-5.8l4,0.4l-0.1,1l-2.8-0.3l-0.1,1.4l2.4,0.2l-0.1,1l-2.4-0.2l-0.1,1.4l2.9,0.3l-0.1,1
			L1707.2,88.1z"/>
		<path class="st5" d="M1717.5,83.2l1.2,0.1l-0.6,5.8l-1.1-0.1l-2.4-4.3l-0.4,4l-1.2-0.1l0.6-5.8l1.2,0.1l2.3,4.1L1717.5,83.2
			L1717.5,83.2z"/>
		<path class="st5" d="M1722.6,89.7c-0.5-0.1-1-0.2-1.4-0.5c-0.4-0.3-0.6-0.7-0.8-1.1s-0.2-1-0.2-1.6c0.1-0.6,0.2-1.1,0.5-1.6
			c0.3-0.4,0.6-0.7,1-0.9c0.4-0.2,0.9-0.3,1.4-0.2c0.3,0,0.7,0.1,0.9,0.3c0.3,0.1,0.5,0.3,0.7,0.5c0.2,0.2,0.3,0.4,0.4,0.7
			c0.1,0.3,0.1,0.5,0.1,0.8l-1.2-0.1c0-0.2-0.1-0.4-0.2-0.5c-0.1-0.2-0.2-0.3-0.4-0.4c-0.2-0.1-0.3-0.2-0.5-0.2
			c-0.3,0-0.5,0-0.7,0.1c-0.2,0.1-0.4,0.3-0.6,0.6c-0.1,0.3-0.2,0.7-0.3,1.1c0,0.4,0,0.7,0,1c0.1,0.3,0.1,0.5,0.3,0.6
			s0.3,0.3,0.4,0.4c0.2,0.1,0.3,0.1,0.5,0.1c0.2,0,0.3,0,0.5,0c0.1,0,0.3-0.1,0.4-0.2c0.1-0.1,0.2-0.2,0.3-0.3
			c0.1-0.1,0.1-0.2,0.1-0.3l0.1-0.3l-1.2-0.1l0.1-0.8l2.4,0.2l-0.3,3l-0.8-0.1l0.1-0.8c-0.1,0.1-0.2,0.2-0.4,0.4
			c-0.2,0.1-0.3,0.2-0.6,0.3C1723.2,89.7,1722.9,89.7,1722.6,89.7z"/>
		<path class="st5" d="M1727.1,90l0.6-5.8l4,0.4l-0.1,1l-2.8-0.3l-0.1,1.4l2.4,0.2l-0.1,1l-2.4-0.2l-0.1,1.4l2.9,0.3l-0.1,1
			L1727.1,90z"/>
		<path class="st5" d="M1732.7,90.6l0.1-1.3l1.3,0.1l-0.1,1.3L1732.7,90.6z"/>
		<path class="st6" d="M1738,91.2c-0.5,0-0.9-0.2-1.2-0.5c-0.3-0.3-0.6-0.6-0.7-1.1c-0.1-0.5-0.2-1-0.1-1.7c0.1-0.6,0.2-1.2,0.4-1.6
			c0.2-0.4,0.5-0.7,0.9-0.9c0.4-0.2,0.8-0.3,1.3-0.2c0.2,0,0.5,0.1,0.7,0.2c0.2,0.1,0.4,0.3,0.6,0.4s0.3,0.4,0.4,0.6
			c0.1,0.2,0.1,0.4,0.1,0.7l-0.4,0c0-0.2-0.1-0.5-0.2-0.7c-0.1-0.2-0.3-0.4-0.5-0.6s-0.5-0.2-0.8-0.3c-0.4,0-0.8,0-1.1,0.2
			c-0.3,0.2-0.6,0.4-0.8,0.8c-0.2,0.4-0.3,0.9-0.4,1.5c0,0.4,0,0.8,0,1.2c0.1,0.3,0.2,0.6,0.3,0.9c0.2,0.2,0.3,0.4,0.6,0.6
			c0.2,0.1,0.5,0.2,0.8,0.2c0.3,0,0.6,0,0.8-0.1c0.2-0.1,0.4-0.2,0.6-0.4c0.2-0.2,0.3-0.3,0.4-0.5c0.1-0.2,0.1-0.4,0.2-0.6l0.1-0.7
			l-1.6-0.2l0-0.3l1.9,0.2l-0.3,3l-0.3,0l0.1-1c-0.1,0.2-0.3,0.4-0.5,0.5s-0.4,0.3-0.6,0.3C1738.6,91.2,1738.3,91.2,1738,91.2z"/>
		<path class="st6" d="M1744.6,91.8c-0.5,0-0.9-0.2-1.2-0.5c-0.3-0.3-0.6-0.6-0.7-1.1c-0.1-0.5-0.2-1-0.1-1.7
			c0.1-0.7,0.2-1.2,0.4-1.6c0.2-0.4,0.5-0.7,0.9-0.9c0.4-0.2,0.8-0.3,1.3-0.2c0.5,0,0.9,0.2,1.2,0.5c0.3,0.3,0.6,0.6,0.7,1.1
			c0.1,0.5,0.2,1,0.1,1.7c-0.1,0.6-0.2,1.2-0.4,1.6c-0.2,0.4-0.5,0.7-0.9,0.9C1745.5,91.8,1745.1,91.9,1744.6,91.8z M1744.6,91.5
			c0.4,0,0.8,0,1.1-0.2c0.3-0.2,0.6-0.4,0.8-0.8c0.2-0.4,0.3-0.9,0.4-1.5c0.1-0.6,0-1.1-0.1-1.5c-0.1-0.4-0.3-0.7-0.6-0.9
			c-0.3-0.2-0.6-0.4-1.1-0.4c-0.4,0-0.8,0-1.1,0.2c-0.3,0.2-0.6,0.4-0.8,0.8c-0.2,0.4-0.3,0.9-0.4,1.5c-0.1,0.6,0,1.1,0.1,1.5
			c0.1,0.4,0.3,0.7,0.6,0.9C1743.8,91.3,1744.2,91.5,1744.6,91.5z"/>
		<path class="st6" d="M1753.6,86.8l-2.7,5.6l-0.5,0l-1.5-6l0.3,0l1.4,5.7l2.5-5.3L1753.6,86.8z"/>
	</g>
</g>
</svg>
